<?xml version="1.0" encoding="UTF-8"?>
<svg version="1.1" xmlns="http://www.w3.org/2000/svg" width="881" height="283">
<path d="M0 0 C5.78003195 5.18826677 10.32668446 10.41524316 13.765625 17.41015625 C14.26320313 18.40917969 14.76078125 19.40820312 15.2734375 20.4375 C17.82429684 26.10040774 19.0275664 31.22059275 19.390625 37.41015625 C19.44605469 38.08755859 19.50148438 38.76496094 19.55859375 39.46289062 C19.85933075 44.21544661 19.44622718 48.0595521 17.640625 52.47265625 C14.924699 55.21011572 13.30220621 56.37267166 9.45780945 56.95367432 C8.26089981 56.94479187 7.06399017 56.93590942 5.83081055 56.92675781 C5.16683762 56.92734192 4.50286469 56.92792603 3.81877136 56.92852783 C1.63775198 56.92575492 -0.54187753 56.8947043 -2.72265625 56.86328125 C-4.24007928 56.85581595 -5.75751198 56.85012438 -7.27494812 56.84613037 C-11.25854356 56.83089657 -15.2415507 56.79163505 -19.22491455 56.74731445 C-23.2937423 56.70631257 -27.3626656 56.68810892 -31.43164062 56.66796875 C-39.40782131 56.62513785 -47.38352486 56.55691475 -55.359375 56.47265625 C-54.60216162 57.9061219 -53.83608464 59.33490726 -53.06640625 60.76171875 C-52.64077393 61.55787598 -52.2151416 62.3540332 -51.77661133 63.17431641 C-48.54714196 68.4115644 -43.63174329 72.1016971 -37.7890625 74 C-28.7889194 75.7508317 -20.23844443 75.32760152 -12.359375 70.47265625 C-11.328125 69.70953125 -10.296875 68.94640625 -9.234375 68.16015625 C-6.359375 66.47265625 -6.359375 66.47265625 -2.859375 66.41015625 C1.41730506 67.70843413 3.62559621 69.17048186 6.640625 72.47265625 C7.953125 75.78515625 7.953125 75.78515625 7.640625 79.47265625 C3.13913699 88.04375519 -6.04209849 91.28631097 -14.70703125 94.28515625 C-27.47866866 97.72275585 -40.54439051 95.65506658 -52.109375 89.66015625 C-65.71141869 81.72241971 -73.92965187 69.52184956 -78.359375 54.47265625 C-81.52558752 39.04493282 -78.80740096 24.54399936 -70.234375 11.47265625 C-62.0244971 0.27104318 -51.50396155 -6.94595415 -37.859375 -9.96484375 C-24.25676895 -11.85738024 -10.71592455 -8.8023666 0 0 Z M-52.89453125 21.35546875 C-56.68916015 26.82061941 -56.95351618 30.44336216 -58.359375 37.47265625 C-39.549375 37.47265625 -20.739375 37.47265625 -1.359375 37.47265625 C-2.43695804 27.77440893 -4.57396793 21.77047487 -11.609375 15.03515625 C-17.12353398 10.73825091 -24.34548583 8.84494006 -31.296875 9.1953125 C-40.7137132 10.46159188 -46.89453944 13.99670017 -52.89453125 21.35546875 Z " fill="#ffffff" transform="translate(700.359375,105.52734375)"/>
<path d="M0 0 C3.5048778 2.40960349 6.04306747 5.0117267 8.75390625 8.25390625 C12.33405257 12.37328798 16.15326438 16.21524843 20.02734375 20.0546875 C20.66467438 20.68650436 21.302005 21.31832123 21.95864868 21.96928406 C24.63338289 24.6162512 27.31177598 27.25945096 29.99438477 29.8984375 C31.9680125 31.84205077 33.93552729 33.7916855 35.90234375 35.7421875 C36.51472397 36.34110809 37.12710419 36.94002869 37.75804138 37.55709839 C39.21029552 39.00055908 40.61078013 40.49577628 42 42 C42 42.66 42 43.32 42 44 C42.66 44 43.32 44 44 44 C53.56943746 52.8119622 60.83796843 64.69497353 61.40039062 77.77441406 C61.61764533 90.07217392 58.25234094 98.90900653 50 108 C48.01309834 110.05730369 45.99277201 112.06952226 43.94140625 114.0625 C42.16839899 115.83193984 40.55060165 117.64823103 38.9375 119.5625 C34.60771583 124.62236488 29.81432874 129.23414487 25.06616211 133.89672852 C24.42815674 134.52635498 23.79015137 135.15598145 23.1328125 135.8046875 C22.55418457 136.37171387 21.97555664 136.93874023 21.37939453 137.52294922 C19.89627065 138.97110166 19.89627065 138.97110166 19 141 C18.34 141 17.68 141 17 141 C17 141.66 17 142.32 17 143 C16.34 143 15.68 143 15 143 C14.7321167 143.5887793 14.4642334 144.17755859 14.18823242 144.78417969 C12.19666035 148.49807081 9.2387284 151.253737 6.3125 154.25 C5.71244141 154.8996875 5.11238281 155.549375 4.49414062 156.21875 C1.3059675 159.47883681 -0.16150372 160.88906049 -4.80859375 161.50390625 C-8.17370308 160.9725732 -9.65359128 160.43665521 -12 158 C-13.13004939 154.60985184 -13.12941627 152.00618687 -13.1328125 148.43359375 C-13.13410156 147.14388672 -13.13539063 145.85417969 -13.13671875 144.52539062 C-13.13462402 143.85483643 -13.1325293 143.18428223 -13.13037109 142.4934082 C-13.12501043 140.4414941 -13.13032881 138.38979801 -13.13671875 136.33789062 C-13.13542969 135.04947266 -13.13414062 133.76105469 -13.1328125 132.43359375 C-13.13168457 131.24822021 -13.13055664 130.06284668 -13.12939453 128.84155273 C-13 126 -13 126 -12 124 C-11.34 124 -10.68 124 -10 124 C-9.6596875 123.13375 -9.6596875 123.13375 -9.3125 122.25 C-7.65273655 119.40469122 -5.57933333 118.06346666 -3 116 C-2.0001089 114.89337895 -1.0234885 113.76556716 -0.0625 112.625 C3.55021254 108.40214045 7.40252148 104.44524831 11.3125 100.5 C11.93568115 99.86400879 12.5588623 99.22801758 13.20092773 98.57275391 C13.79075439 97.98155762 14.38058105 97.39036133 14.98828125 96.78125 C15.51977783 96.24564453 16.05127441 95.71003906 16.59887695 95.15820312 C18 94 18 94 20 94 C20.226875 93.401875 20.45375 92.80375 20.6875 92.1875 C22.44176201 89.26372999 23.86849164 88.36152537 27 87 C28.96484375 86.95703125 28.96484375 86.95703125 31.0625 87.0625 C34.95137591 87.34346746 34.95137591 87.34346746 37.5625 85.375 C39.25490942 83.02584359 39.25490942 83.02584359 39.0625 79.9375 C38.22721607 76.91334469 38.22721607 76.91334469 35.9375 75.125 C33.1236209 74.04734418 31.8973777 73.92557289 29 74.0625 C25.9854652 74.15828896 25.14848611 74.0869187 22.4375 72.5 C19.14204025 69.12004128 16.04534585 65.60579752 13 62 C11.95960741 60.76975474 10.91801497 59.54052277 9.875 58.3125 C9.43929688 57.79300781 9.00359375 57.27351563 8.5546875 56.73828125 C5.99593806 53.87736793 3.23526099 51.22052667 0.50585938 48.52368164 C-1.0599055 46.9754403 -2.62372166 45.4252475 -4.1875 43.875 C-4.72052734 43.35035156 -5.25355469 42.82570312 -5.80273438 42.28515625 C-12.59115285 35.53943223 -12.45108143 30.92986934 -12.75 21.6875 C-12.80542969 20.46353516 -12.86085938 19.23957031 -12.91796875 17.97851562 C-12.96050781 16.79322266 -13.00304687 15.60792969 -13.046875 14.38671875 C-13.08651367 13.30608154 -13.12615234 12.22544434 -13.16699219 11.11206055 C-12.93840419 6.85210256 -12.14756863 3.3175788 -9.3125 0.0625 C-5.80494391 -1.54907982 -3.68376564 -1.01621121 0 0 Z " fill="#ffffff" transform="translate(448,61)"/>
<path d="M0 0 C10.42276128 8.50773587 17.07179889 19.97335425 19.625 33.25 C21.21161211 49.11612108 17.90900373 62.73638567 8.109375 75.46875 C0.79696501 84.24364199 -11.31228539 92.65761318 -23 94 C-39.97646055 95.19148426 -51.69546874 91.69157908 -65 81 C-64.99214478 82.84561523 -64.99214478 82.84561523 -64.98413086 84.72851562 C-64.96594556 89.32063054 -64.95451876 93.9127423 -64.94506836 98.50488281 C-64.94005897 100.48731014 -64.9332496 102.46973382 -64.92456055 104.45214844 C-64.91234571 107.31185818 -64.90673761 110.1715188 -64.90234375 113.03125 C-64.89718246 113.90865845 -64.89202118 114.78606689 -64.88670349 115.69006348 C-64.88623709 120.87868597 -64.99733837 125.89852617 -66 131 C-67.01320313 131.59296875 -68.02640625 132.1859375 -69.0703125 132.796875 C-72.21755904 134.63739945 -72.21755904 134.63739945 -72.39746094 137.36132812 C-72.36560594 140.3515877 -72.16207629 143.27347218 -71.875 146.25 C-71.80023438 147.28125 -71.72546875 148.3125 -71.6484375 149.375 C-71.4600026 151.91887121 -71.23362306 154.45988017 -71 157 C-67.7 157 -64.4 157 -61 157 C-60.34 158.32 -59.68 159.64 -59 161 C-59.66 161.99 -60.32 162.98 -61 164 C-62.97119141 164.34057617 -62.97119141 164.34057617 -65.3515625 164.29296875 C-66.20234375 164.28330078 -67.053125 164.27363281 -67.9296875 164.26367188 C-68.81914062 164.23853516 -69.70859375 164.21339844 -70.625 164.1875 C-71.5221875 164.17396484 -72.419375 164.16042969 -73.34375 164.14648438 C-75.56309789 164.11106925 -77.78125188 164.06168461 -80 164 C-79.99476318 162.9805127 -79.98952637 161.96102539 -79.98413086 160.91064453 C-79.96605624 157.13493729 -79.95455895 153.35923388 -79.94506836 149.58349609 C-79.94003379 147.94807289 -79.93320573 146.3126542 -79.92456055 144.67724609 C-79.91245665 142.32909025 -79.906763 139.98099381 -79.90234375 137.6328125 C-79.89718246 136.89942657 -79.89202118 136.16604065 -79.88670349 135.41043091 C-79.816844 131.57877344 -79.816844 131.57877344 -81 128 C-81.10371425 126.27564433 -81.14384918 124.54731264 -81.15390015 122.81987 C-81.16250061 121.72209229 -81.17110107 120.62431458 -81.17996216 119.49327087 C-81.18422211 118.2833699 -81.18848206 117.07346893 -81.19287109 115.8269043 C-81.20104858 114.55692596 -81.20922607 113.28694763 -81.21765137 111.97848511 C-81.24387418 107.76041792 -81.25917903 103.5423408 -81.2734375 99.32421875 C-81.27879703 97.87251084 -81.28417454 96.420803 -81.28956985 94.96909523 C-81.31119877 88.9307259 -81.32993577 82.89235926 -81.34119225 76.85396099 C-81.3574336 68.19823479 -81.39061508 59.54295734 -81.44759309 50.88740033 C-81.48628479 44.80240644 -81.50582397 38.71753261 -81.51111281 32.63241893 C-81.51476736 28.99747061 -81.52679828 25.36300088 -81.55921555 21.72818565 C-81.59486977 17.67227843 -81.59092741 13.61733639 -81.58349609 9.5612793 C-81.59990143 8.35745102 -81.61630676 7.15362274 -81.63320923 5.91331482 C-81.56507077 -3.14810982 -81.56507077 -3.14810982 -78.69009399 -6.28117371 C-76 -8 -76 -8 -72.375 -8.0625 C-69 -7 -69 -7 -67.125 -5.5 C-65.45345589 -1.78545754 -65.25001652 1.96525066 -65 6 C-64.48953125 5.49210937 -63.9790625 4.98421875 -63.453125 4.4609375 C-45.33090328 -12.69733626 -20.42768164 -15.32076123 0 0 Z M-56 15 C-58.5181534 18.1502613 -60.34045393 21.33093557 -62 25 C-62.33773438 25.73476562 -62.67546875 26.46953125 -63.0234375 27.2265625 C-67.37117099 38.8338143 -66.19557553 52.22109471 -61.38671875 63.3984375 C-60.0915451 65.82825623 -58.82354732 67.93689821 -57 70 C-56.34 70 -55.68 70 -55 70 C-55 70.66 -55 71.32 -55 72 C-52.95979045 73.53195854 -52.95979045 73.53195854 -50.375 75 C-49.51648438 75.515625 -48.65796875 76.03125 -47.7734375 76.5625 C-39.26736996 80.97127867 -29.99040783 81.46384818 -20.70703125 79.1953125 C-10.72537711 75.45057809 -2.87400508 68.80967151 2.0625 59.3359375 C6.04695224 49.40801067 6.79140464 38.05305271 3.25 27.875 C-0.68486688 18.68907383 -6.71179361 10.93767295 -15.9609375 6.77734375 C-30.40795348 1.26976486 -44.77191904 4.2988031 -56 15 Z " fill="#ffffff" transform="translate(403,105)"/>
<path d="M0 0 C8.50720043 5.43970028 13.47141089 13.25675245 16.17877197 22.91635132 C17.1525782 27.87269335 17.03327621 32.95365858 17.109375 37.98828125 C17.1334845 39.21983444 17.15759399 40.45138763 17.18243408 41.72026062 C17.23061946 44.3198538 17.27403472 46.91953921 17.31298828 49.51928711 C17.37462896 53.47618213 17.4577991 57.43222161 17.54296875 61.38867188 C17.58724199 63.92185254 17.63025202 66.45505566 17.671875 68.98828125 C17.71075836 70.74813103 17.71075836 70.74813103 17.75042725 72.54353333 C17.95613473 89.30786297 17.95613473 89.30786297 13.5 94.8125 C9.73335086 96.61394089 6.72552007 97.02417177 2.625 96.1875 C-0.81812714 94.0630173 -2.09117547 93.03897359 -3.375 89.1875 C-3.47675654 87.27705068 -3.52074416 85.3633152 -3.53271484 83.45019531 C-3.54297699 82.27177063 -3.55323914 81.09334595 -3.56381226 79.87921143 C-3.57111359 78.60422791 -3.57841492 77.32924438 -3.5859375 76.015625 C-3.60681993 74.01248182 -3.62771982 72.00933864 -3.64963722 70.00620651 C-3.7027419 65.06605507 -3.74694511 60.12589707 -3.77636719 55.18554688 C-3.79330826 52.41512193 -3.81804448 49.64497279 -3.85122681 46.87469482 C-3.88212643 44.26710181 -3.90159895 41.6593422 -3.90829468 39.05157471 C-4.0302971 30.28030517 -4.90651225 23.65598775 -11.375 17.1875 C-17.80524079 13.13365254 -24.97447569 13.41927948 -32.375 14.1875 C-39.22421139 16.14441754 -42.62520464 20.07675269 -46.0625 26.1875 C-50.88469093 38.49951138 -48.4260295 55.1037428 -48.27905273 68.07739258 C-48.24882985 70.93571584 -48.23109136 73.79391173 -48.21484375 76.65234375 C-48.20138412 77.52116684 -48.1879245 78.38998993 -48.17405701 79.28514099 C-48.15039005 85.01829402 -48.54646785 89.77122538 -52.125 94.5 C-55.002888 96.658416 -56.77919802 97.11558396 -60.375 97.1875 C-64.56219003 95.62756646 -67.20126153 94.10536133 -69.375 90.1875 C-69.67101149 87.20807978 -69.79523679 84.43845206 -69.77905273 81.45922852 C-69.78591599 80.57910095 -69.79277924 79.69897339 -69.79985046 78.79217529 C-69.8181486 75.8834214 -69.81427661 72.97520534 -69.80859375 70.06640625 C-69.81315417 68.04385706 -69.81845933 66.02130942 -69.82447815 63.99876404 C-69.83341523 59.75944728 -69.83097937 55.52031885 -69.82104492 51.28100586 C-69.8095558 45.84898814 -69.82976302 40.41762052 -69.85896206 34.98568821 C-69.87731067 30.8086484 -69.87703423 26.63176475 -69.87132454 22.45469475 C-69.87117115 20.45202663 -69.87722967 18.44934804 -69.88961601 16.44671822 C-69.90449843 13.64578636 -69.89386913 10.84606021 -69.87670898 8.04516602 C-69.88637695 7.21850937 -69.89604492 6.39185272 -69.90600586 5.54014587 C-69.85587839 1.6316404 -69.62222113 -0.39542148 -67.58583069 -3.83094788 C-65.375 -5.8125 -65.375 -5.8125 -61.5 -6.375 C-57.28383675 -6.11445059 -54.60304147 -4.55633525 -51.375 -1.8125 C-51.375 -1.1525 -51.375 -0.4925 -51.375 0.1875 C-50.66214844 -0.15023437 -49.94929687 -0.48796875 -49.21484375 -0.8359375 C-48.25707031 -1.28195313 -47.29929687 -1.72796875 -46.3125 -2.1875 C-45.37277344 -2.62835938 -44.43304687 -3.06921875 -43.46484375 -3.5234375 C-28.53397957 -9.75249588 -13.86348594 -7.6950599 0 0 Z " fill="#ffffff" transform="translate(591.375,102.8125)"/>
<path d="M0 0 C2.22683196 3.34024793 2.2652219 4.48366144 2.31884766 8.3894043 C2.33871735 9.49031906 2.35858704 10.59123383 2.37905884 11.72550964 C2.39061005 12.91308365 2.40216125 14.10065765 2.4140625 15.32421875 C2.43342865 16.54075638 2.4527948 17.75729401 2.4727478 19.01069641 C2.53261021 22.90289257 2.57895618 26.79511819 2.625 30.6875 C2.66317359 33.32358073 2.70222495 35.95964891 2.7421875 38.59570312 C2.8383173 45.06369078 2.92334539 51.53175382 3 58 C3.88913086 57.44570312 4.77826172 56.89140625 5.69433594 56.3203125 C6.87427475 55.58842202 8.05429192 54.85665784 9.234375 54.125 C9.81880371 53.76019531 10.40323242 53.39539063 11.00537109 53.01953125 C21.80398476 46.33684487 33.03687267 45.29467113 45.44921875 47.65625 C55.22624671 50.5605656 63.16957926 56.65561103 69 65 C72.05101461 70.65926086 73.72040803 75.99012843 74.25 82.375 C74.32516846 83.19734131 74.40033691 84.01968262 74.4777832 84.86694336 C75.61802403 99.52587949 75.22799016 114.31168908 75 129 C74.98598145 130.11213867 74.97196289 131.22427734 74.95751953 132.37011719 C74.91454864 135.06089265 74.84251562 137.74803576 74.75 140.4375 C74.73606201 141.17492432 74.72212402 141.91234863 74.70776367 142.67211914 C74.54664413 145.96607428 74.17123921 147.77168105 72.171875 150.4375 C68.95765848 152.74988598 66.8529029 152.61921654 63 152 C60.25482781 149.34279153 59.10670501 147.67706462 58.50793457 143.87774658 C58.51111694 142.70798279 58.51429932 141.53821899 58.51757812 140.33300781 C58.51366562 139.68349152 58.50975311 139.03397522 58.50572205 138.36477661 C58.49976613 136.96089901 58.50288268 135.55695938 58.5141449 134.15311432 C58.53148043 131.9234885 58.52385925 129.69515118 58.5098877 127.46551514 C58.48030646 121.9265248 58.4933802 116.38778354 58.50506592 110.84875488 C58.51330768 106.16814824 58.50516845 101.48810606 58.47593689 96.80757904 C58.46889912 94.62438219 58.48545083 92.44221016 58.50305176 90.25909424 C58.50165695 82.20507183 58.21364805 74.69031083 52.5880127 68.42828369 C46.28090163 62.78155951 39.15319095 62.09566978 31 62 C22.02405323 62.96995651 15.04532756 67.0877867 9.46875 74.0078125 C2.48427495 83.48143558 2.71633623 95.49238521 2.7265625 106.84375 C2.70630284 109.24740074 2.6854527 111.65104656 2.6640625 114.0546875 C2.64134851 117.7985456 2.62493468 121.5422086 2.61914062 125.28613281 C2.60965701 128.93068464 2.57597007 132.57438749 2.5390625 136.21875 C2.54410797 137.34164429 2.54915344 138.46453857 2.55435181 139.62145996 C2.54108856 140.66354614 2.52782532 141.70563232 2.51416016 142.77929688 C2.5098851 144.15063782 2.5098851 144.15063782 2.50552368 145.54968262 C1.8398954 148.77604098 0.54855582 149.97573112 -2 152 C-5.79076076 152.72589036 -7.39531018 152.38518961 -10.6529541 150.31005859 C-14.82028502 145.86152855 -13.67307874 139.1547969 -13.61523438 133.4765625 C-13.61873715 132.08493371 -13.62439749 130.69330893 -13.63204956 129.30169678 C-13.64628526 125.52878362 -13.62924874 121.75660036 -13.60576439 117.98375702 C-13.58564089 114.03295682 -13.59153572 110.0821865 -13.59387207 106.13134766 C-13.59381851 99.49694803 -13.57407138 92.86283335 -13.54199219 86.22851562 C-13.50509996 78.56161358 -13.49631678 70.89508477 -13.5032897 63.22810555 C-13.50959806 55.84853202 -13.49883427 48.4690863 -13.47932434 41.08953857 C-13.47115608 37.95088884 -13.46843973 34.81230449 -13.47001648 31.67364502 C-13.47089636 27.97663975 -13.45665194 24.27998837 -13.43078995 20.58307648 C-13.4202279 18.5814334 -13.42429695 16.57972984 -13.42880249 14.57806396 C-13.4174527 13.38360657 -13.40610291 12.18914917 -13.39440918 10.95849609 C-13.39068047 9.92244232 -13.38695175 8.88638855 -13.38311005 7.81893921 C-12.93529128 4.52387065 -12.00374016 2.63907195 -10 0 C-6.23918426 -1.25360525 -3.84551868 -0.83902226 0 0 Z " fill="#ffffff" transform="translate(123,48)"/>
<path d="M0 0 C7.89649765 7.51594354 7.89649765 7.51594354 8.125 13 C8 16 8 16 7 18 C6.34 18 5.68 18 5 18 C5 18.66 5 19.32 5 20 C2.3125 20.8125 2.3125 20.8125 -1 21 C-3.375 19 -3.375 19 -6 16 C-14.31865214 7.60657346 -21.82815022 4.63560497 -33.5625 4.5 C-41.40855903 4.59095123 -47.80936446 5.13875939 -53.7890625 10.6484375 C-59.71715314 17.08224203 -60.45653351 22.94087294 -60.3125 31.546875 C-59.75054379 37.75649117 -57.82605877 41.21544256 -53.421875 45.51953125 C-49.63331161 48.5742842 -45.49819335 49.79573407 -40.875 51.125 C-40.03187256 51.38015381 -39.18874512 51.63530762 -38.32006836 51.89819336 C-33.7635783 53.25942677 -29.19322231 54.47688695 -24.5625 55.5625 C-12.97186634 58.39145522 -2.43558835 62.87615872 4.4375 73.1484375 C5.44621473 75.08427974 6.26841091 76.9443937 7 79 C7.35449219 79.9178125 7.70898438 80.835625 8.07421875 81.78125 C10.60508969 90.58056501 9.93606996 100.72242799 6 109 C5.70996094 109.61101562 5.41992188 110.22203125 5.12109375 110.8515625 C4.17411106 112.65043338 3.13733068 114.31549992 2 116 C1.61457031 116.58652344 1.22914062 117.17304688 0.83203125 117.77734375 C-4.71141237 125.20653359 -13.33279843 128.77590965 -22.25 130.4375 C-37.98067143 132.28816723 -53.9614689 129.86391596 -67.078125 120.51953125 C-71.44230158 116.95300879 -74.66418778 113.74246646 -75.375 107.9375 C-74.95065142 104.61343613 -74.44482123 103.27621287 -72 101 C-69.6875 100 -69.6875 100 -67 100 C-63.19971036 102.02682114 -60.38541814 104.57276858 -57.25 107.5 C-47.97145943 115.56452592 -37.99095901 116.00356958 -26.15527344 115.22753906 C-19.89544226 114.5666688 -15.65488848 112.5140469 -11.0625 108.3125 C-6.46570419 100.92976734 -5.1155439 94.56039748 -7 86 C-9.09872187 80.14567058 -12.60871989 76.62731756 -18.1328125 73.9765625 C-24.25025109 71.57944706 -30.56524311 70.09761311 -36.9375 68.5625 C-50.56380072 65.23397643 -63.06453374 61.51366996 -70.91796875 48.92578125 C-76.33095734 38.47267026 -77.93016015 27.33508317 -74.9375 15.75 C-71.66820305 6.48952631 -65.41497068 -0.99362504 -57 -6 C-37.65516957 -14.71580272 -17.18833251 -12.47095074 0 0 Z " fill="#ffffff" transform="translate(87,70)"/>
<path d="M0 0 C2.12452746 2.41466117 2.92666563 3.63332816 3.5625 6.8125 C2.77117693 11.29666408 0.37655832 14.01778425 -3 17 C-7.20813145 18.40271048 -9.94717953 16.63414518 -13.875 15.0625 C-23.26315736 11.52380216 -32.443244 9.90622319 -42 14 C-43.21439799 17.64319397 -43.61130827 21.20843325 -43 25 C-41.42005825 28.0337076 -40.45858578 28.85304986 -37.171875 29.90625 C-36.04265625 30.1021875 -34.9134375 30.298125 -33.75 30.5 C-32.50347656 30.74105469 -31.25695312 30.98210937 -29.97265625 31.23046875 C-29.32055176 31.35470215 -28.66844727 31.47893555 -27.99658203 31.60693359 C-14.85010809 34.19507532 -5.36895987 37.70898171 3.58984375 47.875 C8.35901068 55.06177787 8.12216699 64.69596429 7 73 C4.70486593 80.45714379 0.82684272 86.97870908 -6 91 C-18.28101203 96.86527468 -31.99226227 98.17596497 -45.125 94.25 C-47.09823505 93.54013179 -49.05904902 92.79390096 -51 92 C-52.16982422 91.53207031 -52.16982422 91.53207031 -53.36328125 91.0546875 C-57.94025396 89.00323834 -62.36354275 86.38443807 -65 82 C-65.92830395 77.65768566 -65.46630527 74.15349199 -63.8125 70.0625 C-61.6178485 67.56513795 -60.23789661 66.75299921 -57 66 C-52.3677515 65.89472162 -50.10586828 67.58390561 -46.6875 70.4375 C-39.94369309 75.95002558 -32.52280085 76.73230647 -24 76 C-19.9195854 75.26418753 -17.68757103 74.5994209 -14.5625 71.875 C-12.51741831 68.11204969 -12.15942524 65.19438315 -13 61 C-15.41584509 56.88411577 -17.56315394 55.47693102 -22 54 C-24.70937857 53.49580072 -27.40292462 53.04175829 -30.125 52.625 C-41.15470869 50.78140737 -52.37041434 48.2721331 -59.56640625 38.9765625 C-64.82858726 30.91088335 -65.24222807 22.04309127 -63.57421875 12.5859375 C-61.07675174 4.89435198 -55.80427098 -0.28610898 -48.7512207 -3.99975586 C-32.63267982 -12.0558802 -14.87374527 -10.43458288 0 0 Z " fill="#ffffff" transform="translate(795,104)"/>
<path d="M0 0 C3.21954645 2.53453657 4.70432435 4.11297305 6 8 C6.08291953 9.9920303 6.10738177 11.98673713 6.09765625 13.98046875 C6.09443359 15.14384766 6.09121094 16.30722656 6.08789062 17.50585938 C6.07532227 19.32827148 6.07532227 19.32827148 6.0625 21.1875 C6.05798828 22.41404297 6.05347656 23.64058594 6.04882812 24.90429688 C6.03703065 27.93624668 6.02056921 30.96809906 6 34 C7.13429443 33.97643433 7.13429443 33.97643433 8.29150391 33.95239258 C11.73592576 33.88981953 15.18022774 33.85093795 18.625 33.8125 C19.81480469 33.78736328 21.00460937 33.76222656 22.23046875 33.73632812 C33.29143525 33.64363846 33.29143525 33.64363846 38 37 C40.59848021 40.01758992 41 41.49588616 41 45.5 C39.82099095 49.62653166 38.27023484 51.28809794 35 54 C32.23382437 55.38308781 29.98982 55.11210196 26.8984375 55.09765625 C25.08085938 55.09282227 25.08085938 55.09282227 23.2265625 55.08789062 C21.95554687 55.07951172 20.68453125 55.07113281 19.375 55.0625 C18.09625 55.05798828 16.8175 55.05347656 15.5 55.04882812 C12.33328708 55.03701203 9.16666644 55.02053815 6 55 C6.06731881 61.67149661 6.15724844 68.34242183 6.26245117 75.01342773 C6.29558052 77.27996006 6.32364928 79.54657251 6.34643555 81.81323242 C6.38020235 85.08286488 6.43252972 88.35177098 6.48828125 91.62109375 C6.49467117 92.62458359 6.5010611 93.62807343 6.50764465 94.66197205 C6.65580659 101.85006866 7.4219324 108.67346116 11.9375 114.5 C16.81292973 118.04576708 22.78962922 117.03956737 28.53710938 116.87304688 C33.42811161 116.79926956 37.40925255 117.23701334 42 119 C44.82008896 123.23013344 44.66787573 127.03165617 44 132 C41.7135119 135.34807187 39.86171022 136.23367529 36 137 C22.99855649 137.9977852 8.19454957 138.52167173 -2.2578125 129.65234375 C-2.83273437 129.10707031 -3.40765625 128.56179687 -4 128 C-4.55429687 127.48566406 -5.10859375 126.97132813 -5.6796875 126.44140625 C-21.18112031 110.36156177 -15.11740477 76.74271292 -15 56 C-15.67981934 55.96479248 -16.35963867 55.92958496 -17.06005859 55.89331055 C-18.40318115 55.79723511 -18.40318115 55.79723511 -19.7734375 55.69921875 C-20.65950684 55.64338623 -21.54557617 55.58755371 -22.45849609 55.5300293 C-26.1611293 54.7578471 -27.84433535 52.89922067 -30 49.8984375 C-31.53490392 46.98451834 -31.68474627 45.21830748 -31 42 C-28.85976788 38.02528321 -27.21702011 35.63485925 -23 34 C-20.640625 33.8046875 -20.640625 33.8046875 -18.25 33.875 C-17.05117188 33.90207031 -17.05117188 33.90207031 -15.828125 33.9296875 C-15.22484375 33.95289063 -14.6215625 33.97609375 -14 34 C-14.02094727 33.17798096 -14.04189453 32.35596191 -14.06347656 31.5090332 C-14.14673309 27.77698036 -14.19869247 24.04512306 -14.25 20.3125 C-14.28351562 19.01892578 -14.31703125 17.72535156 -14.3515625 16.39257812 C-14.36445312 15.14541016 -14.37734375 13.89824219 -14.390625 12.61328125 C-14.41157227 11.46641846 -14.43251953 10.31955566 -14.45410156 9.13793945 C-13.90384899 5.33557585 -12.65728809 3.71874791 -10 1 C-6.78070427 -0.60964787 -3.48112288 -0.60686242 0 0 Z " fill="#ffffff" transform="translate(837,63)"/>
<path d="M0 0 C11.27354881 7.71779286 18.79754361 17.62740245 22.484375 30.875 C25.30325543 46.41016328 23.77411923 60.80435295 15.58203125 74.41796875 C13.91747179 76.71513989 12.16504538 78.71730396 10.1875 80.75 C9.45789063 81.51828125 8.72828125 82.2865625 7.9765625 83.078125 C-2.04818165 92.87577138 -14.06430363 97.53899246 -27.99609375 97.8125 C-42.29316819 97.26327265 -55.34981053 91.06524541 -65.1875 80.7265625 C-68.23424301 77.02066836 -70.56304239 72.97506821 -72.8125 68.75 C-73.20566406 68.0178125 -73.59882813 67.285625 -74.00390625 66.53125 C-76.96717682 60.49536308 -78.07545243 54.40140491 -78.8125 47.75 C-78.89757812 47.02296875 -78.98265625 46.2959375 -79.0703125 45.546875 C-79.8033946 32.74237439 -74.740042 19.72970675 -66.58984375 10.1328125 C-61.00275025 4.16498204 -55.27733837 0.04937607 -47.8125 -3.25 C-46.44351563 -3.86875 -46.44351563 -3.86875 -45.046875 -4.5 C-30.08176628 -10.38791163 -13.6421998 -8.17783445 0 0 Z M-54.47265625 18.34765625 C-62.21274683 26.29449382 -64.18724589 34.6970519 -64.11010742 45.68359375 C-63.84342752 57.54332784 -59.36768027 66.96156313 -50.84765625 75.14453125 C-41.60068312 82.4391684 -31.2164004 83.97628268 -19.8125 82.75 C-8.66568588 80.0192071 -1.11236009 74.83573698 4.8984375 65.14453125 C10.07456484 55.52948258 10.79268407 44.15923949 8.49609375 33.55859375 C4.9452808 22.876441 -1.92304283 15.18173211 -11.7109375 9.68359375 C-27.15701791 2.93815357 -42.70131493 7.42597566 -54.47265625 18.34765625 Z " fill="#ffffff" transform="translate(286.8125,102.25)"/>
<path d="M0 0 C4.15101055 2.00616768 7.14172321 5.05077258 10.07421875 8.546875 C15.37736819 14.6886947 21.25506049 20.26437223 27.05664062 25.9296875 C28.35311523 27.20972656 28.35311523 27.20972656 29.67578125 28.515625 C30.8500769 29.66466309 30.8500769 29.66466309 32.0480957 30.83691406 C34.88581692 33.98165578 36.03911607 35.62727754 35.91650391 39.93017578 C34.77964653 43.73807261 33.19005371 45.36961933 30.3359375 48.1171875 C29.86564117 48.57803741 29.39534485 49.03888733 28.91079712 49.51370239 C27.41028808 50.97980248 25.89371991 52.42779474 24.375 53.875 C22.39895564 55.78425573 20.42964588 57.70037204 18.4609375 59.6171875 C17.05086426 60.98665527 17.05086426 60.98665527 15.61230469 62.38378906 C12.72894098 65.27146434 10.03965852 68.26662451 7.42431641 71.39697266 C4.20824906 75.0165644 1.29688722 76.76420232 -3.4375 77.625 C-11.39662971 76.22866146 -15.55654304 69.14972866 -20.328125 63.15234375 C-24.47514292 58.12013422 -29.21643787 53.63025862 -33.86328125 49.06640625 C-34.4054126 48.53362061 -34.94754395 48.00083496 -35.50610352 47.4519043 C-36.77435424 46.21930305 -38.06461602 45.00941357 -39.359375 43.8046875 C-41.88067207 41.03126073 -41.93556537 38.67277416 -42 35 C-40.08606895 30.21517237 -35.92479055 26.28169234 -32 23 C-31.34 23 -30.68 23 -30 23 C-29.67 22.01 -29.34 21.02 -29 20 C-27.43359375 18.4921875 -27.43359375 18.4921875 -25.4375 16.875 C-22.28152101 14.21584776 -19.55672458 11.44892932 -16.875 8.3125 C-11.9204694 2.65293873 -7.94195845 -1.25399344 0 0 Z " fill="#EE5E5E" transform="translate(765,5)"/>
<path d="M0 0 C5.34819889 2.45125782 8.22701564 6.65825308 11.71875 11.2109375 C14.19519405 14.23864478 16.88627372 16.96711448 19.6875 19.6875 C29.45240419 29.31678052 29.45240419 29.31678052 30.625 35.0625 C29.27677497 41.39915763 23.77738081 45.18472459 19.05078125 49.19921875 C17.03566087 50.96868636 15.17539061 52.82217202 13.3125 54.75 C9.89802491 58.18765026 7.16365934 60.76924963 2.1796875 61.30078125 C-1.77600823 60.92659382 -3.25098836 59.7488315 -6.3125 57.25 C-7.34246094 56.4353125 -8.37242187 55.620625 -9.43359375 54.78125 C-10.27833252 54.11222656 -10.27833252 54.11222656 -11.14013672 53.4296875 C-15.32370332 50.21375602 -19.70133376 47.25754667 -24.03637695 44.25097656 C-35.72465215 36.08303486 -35.72465215 36.08303486 -36.9375 31.3125 C-36.44058367 24.58501734 -30.10105562 19.69188856 -25.3125 15.53515625 C-24.838125 15.15230469 -24.36375 14.76945312 -23.875 14.375 C-21.39638571 12.32744906 -19.55321712 10.38073871 -17.5 7.9375 C-12.44934274 2.09111556 -7.92343913 -1.50161951 0 0 Z " fill="#EEBD3B" transform="translate(711,44)"/>
<path d="M0 0 C8.74519948 -0.02321916 17.49038828 -0.04096379 26.23561192 -0.05181217 C30.29681554 -0.05702009 34.357998 -0.06407962 38.41918945 -0.07543945 C42.34195602 -0.08634283 46.26470228 -0.09229258 50.18748283 -0.09487724 C51.68051409 -0.0967181 53.17354429 -0.10031275 54.66656685 -0.10573006 C56.76544683 -0.11303949 58.86424401 -0.11398679 60.96313477 -0.11352539 C62.75183739 -0.11685631 62.75183739 -0.11685631 64.57667542 -0.12025452 C68.11326833 0.00397889 71.50845432 0.43761799 75 1 C74.45541143 4.97109929 72.59622644 6.74065416 69.7734375 9.484375 C68.90589844 10.33773437 68.03835938 11.19109375 67.14453125 12.0703125 C66.23058594 12.95460938 65.31664062 13.83890625 64.375 14.75 C58.86096416 20.12837939 53.41534993 25.46205297 48.45947266 31.36621094 C45.22215725 34.99018463 42.31922087 36.76014166 37.5625 37.625 C29.60337029 36.22866146 25.44345696 29.14972866 20.671875 23.15234375 C14.91604196 16.16791338 8.15316843 9.92504609 1.58203125 3.71484375 C0 2 0 2 0 0 Z " fill="#CD434D" transform="translate(724,45)"/>
<path d="M0 0 C2.02829372 2.40859879 3 3.83044309 3 7 C3.99 7 4.98 7 6 7 C6 7.66 6 8.32 6 9 C6.598125 9.103125 7.19625 9.20625 7.8125 9.3125 C10.42573762 10.13380325 11.34672947 10.82068885 13 13 C14.1875 16.1875 14.1875 16.1875 15 19 C15.66 19 16.32 19 17 19 C17.66 20.32 18.32 21.64 19 23 C19.99 23 20.98 23 22 23 C22.66 25.64 23.32 28.28 24 31 C16.48955919 31.02316465 8.97912207 31.04093616 1.46865368 31.05181217 C-2.01871311 31.05703196 -5.50605547 31.06411324 -8.9934082 31.07543945 C-13.00211828 31.08837754 -17.01080267 31.09323569 -21.01953125 31.09765625 C-22.27272659 31.10281754 -23.52592194 31.10797882 -24.8170929 31.11329651 C-26.55855843 31.11340981 -26.55855843 31.11340981 -28.33520508 31.11352539 C-29.87075798 31.11685631 -29.87075798 31.11685631 -31.43733215 31.12025452 C-34 31 -34 31 -37 30 C-37.5 27.4375 -37.5 27.4375 -37 24 C-34.59934246 21.33649675 -31.79888048 19.22864128 -29 17 C-28.13375 16.113125 -27.2675 15.22625 -26.375 14.3125 C-23.78243803 11.78816334 -21.00612014 10.00408009 -18 8 C-17.154375 7.154375 -16.30875 6.30875 -15.4375 5.4375 C-10.47273065 0.47273065 -6.91302928 -0.89200378 0 0 Z " fill="#E2A223" transform="translate(713,48)"/>
<path d="M0 0 C12.21 0 24.42 0 37 0 C35.89941671 4.40233318 34.94057747 5.40594862 31.7734375 8.484375 C30.90589844 9.33773437 30.03835938 10.19109375 29.14453125 11.0703125 C28.23058594 11.95460938 27.31664062 12.83890625 26.375 13.75 C20.88328913 19.10660365 15.45555247 24.40458447 10.55712891 30.31738281 C7.49004501 33.63164155 5.86455523 34.95677224 1.25 35.1875 C0.1775 35.125625 -0.895 35.06375 -2 35 C-1.67 34.34 -1.34 33.68 -1 33 C-0.843749 30.52190743 -0.74179181 28.06668307 -0.68359375 25.5859375 C-0.66494263 24.93923096 -0.6462915 24.29252441 -0.6270752 23.6262207 C-0.55875147 21.20928676 -0.49861933 18.79212686 -0.4375 16.375 C-0.293125 10.97125 -0.14875 5.5675 0 0 Z " fill="#BB3441" transform="translate(762,46)"/>
<path d="M0 0 C1.2684375 0.12375 1.2684375 0.12375 2.5625 0.25 C3.2225 1.24 3.8825 2.23 4.5625 3.25 C5.5525 3.58 6.5425 3.91 7.5625 4.25 C10.20182757 6.68630238 12.49064401 9.15700989 14.6875 12 C16.43681597 14.50052455 16.43681597 14.50052455 19.5625 15.25 C20.95703125 17.2109375 20.95703125 17.2109375 22.375 19.625 C24.97018762 23.72164279 27.06526498 25.30801215 31.5625 27.25 C33.67081259 30.22080411 33.5625 31.44114823 33.5625 35.25 C21.6825 34.92 9.8025 34.59 -2.4375 34.25 C-2.623125 28.825625 -2.80875 23.40125 -3 17.8125 C-3.06131104 16.09877197 -3.12262207 14.38504395 -3.18579102 12.61938477 C-3.2297375 11.26840514 -3.27330242 9.91741302 -3.31640625 8.56640625 C-3.34311401 7.85899292 -3.36982178 7.15157959 -3.39733887 6.42272949 C-3.44988632 4.69923523 -3.44942097 2.97425392 -3.4375 1.25 C-2.4375 0.25 -2.4375 0.25 0 0 Z " fill="#DF4D52" transform="translate(764.4375,10.75)"/>
<path d="M0 0 C3.26171875 0.44921875 3.26171875 0.44921875 5.9296875 3.1171875 C6.7892122 4.27602281 7.62862641 5.44999629 8.44921875 6.63671875 C8.87396484 7.21486328 9.29871094 7.79300781 9.73632812 8.38867188 C12.09751369 11.63851515 14.24986321 14.96942952 16.26171875 18.44921875 C16.35259766 16.62583984 16.35259766 16.62583984 16.4453125 14.765625 C16.52970207 13.18097647 16.61435085 11.59634173 16.69921875 10.01171875 C16.73853516 9.20927734 16.77785156 8.40683594 16.81835938 7.58007812 C17.1484375 1.5625 17.1484375 1.5625 18.26171875 0.44921875 C20.24171875 0.44921875 22.22171875 0.44921875 24.26171875 0.44921875 C24.26171875 11.00921875 24.26171875 21.56921875 24.26171875 32.44921875 C17.26171875 32.44921875 17.26171875 32.44921875 15.38134766 30.98046875 C14.92163574 30.31015625 14.46192383 29.63984375 13.98828125 28.94921875 C13.47394531 28.22734375 12.95960938 27.50546875 12.4296875 26.76171875 C11.92050781 25.99859375 11.41132812 25.23546875 10.88671875 24.44921875 C9.83927432 22.94779719 8.78990514 21.4477159 7.73828125 19.94921875 C7.28533691 19.27890625 6.83239258 18.60859375 6.36572266 17.91796875 C6.00140137 17.43328125 5.63708008 16.94859375 5.26171875 16.44921875 C4.93171875 16.44921875 4.60171875 16.44921875 4.26171875 16.44921875 C4.27332031 17.52042969 4.28492188 18.59164062 4.296875 19.6953125 C4.30625174 21.09244618 4.31535206 22.48958174 4.32421875 23.88671875 C4.33259766 24.59376953 4.34097656 25.30082031 4.34960938 26.02929688 C4.35825463 27.83615434 4.31391886 29.64309478 4.26171875 31.44921875 C3.26171875 32.44921875 3.26171875 32.44921875 0.19921875 32.51171875 C-0.77015625 32.49109375 -1.73953125 32.47046875 -2.73828125 32.44921875 C-4.16745868 29.59086389 -3.86808934 27.13664156 -3.87109375 23.9453125 C-3.87238281 22.64787109 -3.87367188 21.35042969 -3.875 20.01367188 C-3.87290527 19.33699463 -3.87081055 18.66031738 -3.86865234 17.96313477 C-3.86329327 15.8913646 -3.86860643 13.81981036 -3.875 11.74804688 C-3.87371094 10.45189453 -3.87242187 9.15574219 -3.87109375 7.8203125 C-3.86996582 6.6233374 -3.86883789 5.4263623 -3.86767578 4.19311523 C-3.69348847 0.49935833 -3.63716891 0.59668249 0 0 Z " fill="#020202" transform="translate(681.73828125,236.55078125)"/>
<path d="M0 0 C1.76098633 1.65234375 1.76098633 1.65234375 3.33203125 3.9375 C4.18764648 5.15566406 4.18764648 5.15566406 5.06054688 6.3984375 C5.63869141 7.25695312 6.21683594 8.11546875 6.8125 9 C7.40998047 9.85851562 8.00746094 10.71703125 8.62304688 11.6015625 C10.09731094 13.72450275 11.55516487 15.85697037 13 18 C13.09087891 16.17662109 13.09087891 16.17662109 13.18359375 14.31640625 C13.26798332 12.73175772 13.3526321 11.14712298 13.4375 9.5625 C13.47681641 8.76005859 13.51613281 7.95761719 13.55664062 7.13085938 C13.88671875 1.11328125 13.88671875 1.11328125 15 0 C17.5 -0.125 17.5 -0.125 20 0 C21 1 21 1 21.11352539 3.95922852 C21.10828857 5.25272217 21.10305176 6.54621582 21.09765625 7.87890625 C21.0962413 8.5655687 21.09482635 9.25223114 21.09336853 9.95970154 C21.08775479 12.16067801 21.07520007 14.36155409 21.0625 16.5625 C21.05748676 18.05143083 21.05292355 19.54036324 21.04882812 21.02929688 C21.03778093 24.68623075 21.02050713 28.34310558 21 32 C14.54907345 32.41961131 14.54907345 32.41961131 12.11962891 30.56298828 C11.65991699 29.90540527 11.20020508 29.24782227 10.7265625 28.5703125 C10.21222656 27.85746094 9.69789063 27.14460938 9.16796875 26.41015625 C8.40419922 25.27900391 8.40419922 25.27900391 7.625 24.125 C7.09261719 23.37863281 6.56023437 22.63226563 6.01171875 21.86328125 C2.33664773 16.67329545 2.33664773 16.67329545 1 14 C0.67 19.94 0.34 25.88 0 32 C-1.98 32 -3.96 32 -6 32 C-7 31 -7 31 -7.11352539 28.13256836 C-7.10828857 26.88096924 -7.10305176 25.62937012 -7.09765625 24.33984375 C-7.0962413 23.67537735 -7.09482635 23.01091095 -7.09336853 22.3263092 C-7.08775518 20.19666101 -7.07520054 18.06711661 -7.0625 15.9375 C-7.05748671 14.49674631 -7.05292351 13.05599097 -7.04882812 11.61523438 C-7.03778145 8.07678898 -7.02050792 4.53840461 -7 1 C-4.42167806 -0.28916097 -2.85894659 -0.34152807 0 0 Z " fill="#030303" transform="translate(214,237)"/>
<path d="M0 0 C4.26385035 4.8378302 5.44636312 8.65342778 5.33203125 15.06640625 C4.96020186 19.15652953 3.57963827 21.88911173 0.68359375 24.78515625 C-3.78216666 28.42200521 -8.1408667 29.66011598 -13.875 29.34375 C-19.49791547 28.35871371 -23.27240108 25.79670501 -26.74609375 21.30078125 C-29.33513169 16.81251825 -29.12957908 12.70921959 -28.1875 7.65625 C-26.31029284 2.91853669 -24.37136076 0.25457829 -20 -2.40625 C-12.82544925 -5.2760703 -6.06250315 -5.35521112 0 0 Z M-19.875 7.34375 C-21.42524464 10.44423928 -21.16492015 12.92269218 -20.875 16.34375 C-19.07937595 19.09704021 -17.82245078 20.87002461 -14.875 22.34375 C-13.32886986 22.25723369 -11.78590613 22.10372364 -10.25 21.90625 C-9.02410156 21.75349609 -9.02410156 21.75349609 -7.7734375 21.59765625 C-6.83371094 21.47197266 -6.83371094 21.47197266 -5.875 21.34375 C-5.875 20.68375 -5.875 20.02375 -5.875 19.34375 C-5.215 19.34375 -4.555 19.34375 -3.875 19.34375 C-2.13640187 15.86655373 -2.42930758 12.14524415 -2.875 8.34375 C-4.09024491 5.1366292 -4.09024491 5.1366292 -6.875 3.34375 C-12.35991595 2.21657461 -16.47630275 2.5289289 -19.875 7.34375 Z " fill="#030302" transform="translate(665.875,240.65625)"/>
<path d="M0 0 C4.10962292 3.7086841 7.20391996 6.89717205 7.80078125 12.58203125 C7.96980774 18.37341255 7.61621947 21.83207322 3.5625 26.3125 C-1.05354478 30.28444551 -5.43678877 31.58478358 -11.4375 31.3125 C-17.60261125 29.36021477 -22.00648692 26.74522224 -25.3125 21.125 C-27.08331936 15.12388996 -26.56090737 10.60252272 -23.8125 5 C-17.42219172 -2.23113831 -8.83940208 -4.33934284 0 0 Z M-16.4375 7.3125 C-18.47661719 9.79490353 -18.46002869 11.51901298 -18.8125 14.75 C-18.36222808 19.02758327 -17.71135787 20.52972081 -14.4375 23.3125 C-10.47426113 24.65288559 -7.46097996 24.71299216 -3.5625 23.1875 C-1.03368363 20.95619144 -0.2009106 19.5951656 0.5625 16.3125 C0.36074762 11.47044279 -0.96264498 8.69083127 -4.4375 5.3125 C-9.01417338 3.333398 -12.23697351 5.01409871 -16.4375 7.3125 Z " fill="#020202" transform="translate(515.4375,238.6875)"/>
<path d="M0 0 C4.97423335 3.23903567 7.30880877 5.89056227 8.6875 11.75 C9.18458154 17.21789696 8.42953579 20.97355057 5.6875 25.75 C1.61852753 30.13544811 -2.92144369 31.63517965 -8.81640625 31.94921875 C-14.30109497 31.51147364 -18.02451727 29.10403313 -21.75 25.1875 C-24.89672325 20.27861173 -24.90610481 15.41075313 -24.3125 9.75 C-22.98217773 5.25910315 -20.66618535 2.62751037 -16.625 0.3125 C-10.94351593 -2.1420704 -5.75804748 -2.1728481 0 0 Z M-14.8125 7.25 C-16.88291793 10.70069654 -17.66046849 13.72129818 -17.3125 17.75 C-15.10020444 22.02480669 -15.10020444 22.02480669 -11.3125 24.75 C-7.30091537 24.78806058 -3.54617401 24.64721746 -0.25 22.25 C1.41457883 17.81112312 1.57718459 12.95672858 -0.20703125 8.53125 C-1.19650569 6.58960386 -1.19650569 6.58960386 -3.3125 5.75 C-7.53762568 5.25244659 -11.10575643 5.02595386 -14.8125 7.25 Z " fill="#030303" transform="translate(191.3125,238.25)"/>
<path d="M0 0 C1.134375 0.020625 2.26875 0.04125 3.4375 0.0625 C3.67694336 0.60487305 3.91638672 1.14724609 4.16308594 1.70605469 C5.93977865 5.71866271 7.73461173 9.72072892 9.578125 13.703125 C10.28125 15.23958333 10.984375 16.77604167 11.6875 18.3125 C12.05101562 19.08851563 12.41453125 19.86453125 12.7890625 20.6640625 C15.96556851 27.66192912 15.96556851 27.66192912 15.4375 32.0625 C12.625 32.375 12.625 32.375 9.4375 32.0625 C9.00050781 31.23878906 8.56351562 30.41507812 8.11328125 29.56640625 C7.56027344 28.74011719 7.00726563 27.91382813 6.4375 27.0625 C3.57843508 26.41957488 3.57843508 26.41957488 0.4375 26.6875 C-1.1403125 26.73777344 -1.1403125 26.73777344 -2.75 26.7890625 C-5.64028092 26.96456947 -5.64028092 26.96456947 -8.5625 28.0625 C-9.77132096 30.06266466 -9.77132096 30.06266466 -10.5625 32.0625 C-12.5425 32.0625 -14.5225 32.0625 -16.5625 32.0625 C-17.93033225 27.95900324 -16.67896857 26.54958419 -14.8515625 22.6796875 C-14.56397064 22.06481476 -14.27637878 21.44994202 -13.98007202 20.81643677 C-13.05832863 18.85234833 -12.12286176 16.89513342 -11.1875 14.9375 C-10.56425263 13.61107686 -9.94184635 12.28425817 -9.3203125 10.95703125 C-4.1959667 0.07361345 -4.1959667 0.07361345 0 0 Z M-0.5625 11.0625 C-1.243125 12.17625 -1.92375 13.29 -2.625 14.4375 C-3.00785156 15.06398437 -3.39070313 15.69046875 -3.78515625 16.3359375 C-4.04167969 16.90570313 -4.29820312 17.47546875 -4.5625 18.0625 C-4.2325 18.7225 -3.9025 19.3825 -3.5625 20.0625 C-1.2525 20.0625 1.0575 20.0625 3.4375 20.0625 C2.90680939 16.24152761 1.94048434 14.00078597 -0.5625 11.0625 Z " fill="#030303" transform="translate(362.5625,236.9375)"/>
<path d="M0 0 C3.31248187 -0.02888146 6.62493167 -0.04675799 9.9375 -0.0625 C10.88302734 -0.07087891 11.82855469 -0.07925781 12.80273438 -0.08789062 C14.15141602 -0.09272461 14.15141602 -0.09272461 15.52734375 -0.09765625 C16.77632446 -0.10551147 16.77632446 -0.10551147 18.05053711 -0.11352539 C20 0 20 0 21 1 C21.125 3.5 21.125 3.5 21 6 C20 7 20 7 17.05859375 7.09765625 C15.26615234 7.08025391 15.26615234 7.08025391 13.4375 7.0625 C11.64119141 7.04896484 11.64119141 7.04896484 9.80859375 7.03515625 C8.88175781 7.02355469 7.95492188 7.01195312 7 7 C7 8.98 7 10.96 7 13 C8.051875 12.814375 9.10375 12.62875 10.1875 12.4375 C13.57119882 12.04920669 15.76425888 12.11752515 19 13 C19 14.98 19 16.96 19 19 C15.04 19 11.08 19 7 19 C7.33 20.98 7.66 22.96 8 25 C11.96 25 15.92 25 20 25 C20.66 26.32 21.32 27.64 22 29 C21.67 29.99 21.34 30.98 21 32 C17.52085059 32.02887814 14.04173169 32.04675687 10.5625 32.0625 C9.07266602 32.07506836 9.07266602 32.07506836 7.55273438 32.08789062 C6.60849609 32.09111328 5.66425781 32.09433594 4.69140625 32.09765625 C3.81685791 32.10289307 2.94230957 32.10812988 2.04125977 32.11352539 C0 32 0 32 -1 31 C-1.10005826 28.87819862 -1.13081087 26.75306461 -1.1328125 24.62890625 C-1.13410156 23.33275391 -1.13539063 22.03660156 -1.13671875 20.70117188 C-1.13462402 20.0223999 -1.1325293 19.34362793 -1.13037109 18.64428711 C-1.1250313 16.57463211 -1.13031193 14.505195 -1.13671875 12.43554688 C-1.13542969 11.13810547 -1.13414062 9.84066406 -1.1328125 8.50390625 C-1.13168457 7.30580322 -1.13055664 6.1077002 -1.12939453 4.87329102 C-1 2 -1 2 0 0 Z " fill="#030303" transform="translate(417,237)"/>
<path d="M0 0 C1.99954746 -0.04254356 4.00041636 -0.04080783 6 0 C7.64225717 1.64225717 7.18619583 3.57763842 7.24609375 5.83984375 C7.27896484 6.82017578 7.31183594 7.80050781 7.34570312 8.81054688 C7.4067832 10.89116828 7.46408969 12.97190397 7.51757812 15.05273438 C7.56881836 16.52516602 7.56881836 16.52516602 7.62109375 18.02734375 C7.6461499 18.93218506 7.67120605 19.83702637 7.69702148 20.76928711 C7.7981385 23.20180987 7.7981385 23.20180987 10 25 C13 25.33333333 13 25.33333333 16 25 C18.56136221 22.43863779 18.29666857 21.33438669 18.4140625 17.7734375 C18.45273437 16.7421875 18.49140625 15.7109375 18.53125 14.6484375 C18.5621875 13.56820312 18.593125 12.48796875 18.625 11.375 C18.66367187 10.28703125 18.70234375 9.1990625 18.7421875 8.078125 C18.83666247 5.38558835 18.92222431 2.69306243 19 0 C21.31 0 23.62 0 26 0 C26.2237569 2.99955197 26.42935249 5.99858928 26.625 9 C26.68945312 9.83917969 26.75390625 10.67835938 26.8203125 11.54296875 C27.16820904 17.15280041 26.7856931 21.6487947 25 27 C21.42444207 31.00121959 18.28782747 32.78415591 13.01953125 33.13671875 C8.49792818 32.83061409 5.11023947 30.87650484 1.625 28.125 C-2.00612486 23.37660595 -1.15083982 17.02740741 -1.125 11.3125 C-1.12886719 10.44560547 -1.13273438 9.57871094 -1.13671875 8.68554688 C-1.13542969 7.85732422 -1.13414062 7.02910156 -1.1328125 6.17578125 C-1.13168457 5.42208252 -1.13055664 4.66838379 -1.12939453 3.8918457 C-1 2 -1 2 0 0 Z " fill="#020202" transform="translate(556,237)"/>
<path d="M0 0 C0.89460937 -0.00128906 1.78921875 -0.00257813 2.7109375 -0.00390625 C3.65195313 -0.00003906 4.59296875 0.00382813 5.5625 0.0078125 C6.97402344 0.00201172 6.97402344 0.00201172 8.4140625 -0.00390625 C9.75597656 -0.00197266 9.75597656 -0.00197266 11.125 0 C11.95128906 0.00112793 12.77757812 0.00225586 13.62890625 0.00341797 C15.5625 0.1328125 15.5625 0.1328125 16.5625 1.1328125 C16.5625 3.1128125 16.5625 5.0928125 16.5625 7.1328125 C11.9425 7.1328125 7.3225 7.1328125 2.5625 7.1328125 C2.5625 9.1128125 2.5625 11.0928125 2.5625 13.1328125 C3.73619141 13.00712891 3.73619141 13.00712891 4.93359375 12.87890625 C5.94550781 12.77707031 6.95742188 12.67523438 8 12.5703125 C9.51400391 12.41369141 9.51400391 12.41369141 11.05859375 12.25390625 C11.88488281 12.21394531 12.71117187 12.17398438 13.5625 12.1328125 C14.5625 13.1328125 14.5625 13.1328125 14.5625 19.1328125 C10.6025 19.1328125 6.6425 19.1328125 2.5625 19.1328125 C2.5625 21.4428125 2.5625 23.7528125 2.5625 26.1328125 C7.1825 25.8028125 11.8025 25.4728125 16.5625 25.1328125 C16.5625 27.1128125 16.5625 29.0928125 16.5625 31.1328125 C15.5625 32.1328125 15.5625 32.1328125 13.61303711 32.24633789 C12.3640564 32.23848267 12.3640564 32.23848267 11.08984375 32.23046875 C10.19072266 32.22724609 9.29160156 32.22402344 8.36523438 32.22070312 C6.94694336 32.20813477 6.94694336 32.20813477 5.5 32.1953125 C4.55060547 32.19080078 3.60121094 32.18628906 2.62304688 32.18164062 C0.26946935 32.1698136 -2.08398477 32.15333275 -4.4375 32.1328125 C-5.07819602 24.16987624 -5.54068985 16.2475979 -5.5625 8.2578125 C-5.56701172 7.56236328 -5.57152344 6.86691406 -5.57617188 6.15039062 C-5.55967342 0.66740342 -5.44776664 0.0074365 0 0 Z " fill="#030303" transform="translate(249.4375,236.8671875)"/>
<path d="M0 0 C3.1875 1.5 3.1875 1.5 5 3 C4.67 4.65 4.34 6.3 4 8 C0.76660512 9.07779829 0.05331633 8.93183292 -3.0625 8 C-6.09324587 6.96958439 -6.09324587 6.96958439 -9 8 C-9 8.66 -9 9.32 -9 10 C-8.25234375 10.24234375 -7.5046875 10.4846875 -6.734375 10.734375 C-5.74953125 11.06953125 -4.7646875 11.4046875 -3.75 11.75 C-2.77546875 12.07484375 -1.8009375 12.3996875 -0.796875 12.734375 C2.23582528 14.10671423 3.90365145 15.43028242 6 18 C7.44897959 23.79591837 7.44897959 23.79591837 6.2265625 27.07421875 C4.02372252 30.53281783 0.85428916 31.86224963 -3 33 C-8.38678108 33.27792194 -13.85910127 32.72680886 -18 29 C-18 25 -18 25 -17 23 C-12.25 23.875 -12.25 23.875 -10 25 C-8.45976004 25.06950541 -6.91665012 25.08452357 -5.375 25.0625 C-4.55773437 25.05347656 -3.74046875 25.04445313 -2.8984375 25.03515625 C-2.27195312 25.02355469 -1.64546875 25.01195312 -1 25 C-1 23.68 -1 22.36 -1 21 C-2.12148438 20.70996094 -2.12148438 20.70996094 -3.265625 20.4140625 C-4.25046875 20.15367187 -5.2353125 19.89328125 -6.25 19.625 C-7.22453125 19.36976563 -8.1990625 19.11453125 -9.203125 18.8515625 C-15.44523068 16.95103312 -15.44523068 16.95103312 -17.3125 13.75 C-18.15691533 10.37233868 -17.9934416 8.33512536 -17 5 C-12.12472929 -0.8188715 -7.23689585 -0.62566823 0 0 Z " fill="#030303" transform="translate(478,237)"/>
<path d="M0 0 C5.34819889 2.45125782 8.22701564 6.65825308 11.71875 11.2109375 C14.19519405 14.23864478 16.88627372 16.96711448 19.6875 19.6875 C29.45240419 29.31678052 29.45240419 29.31678052 30.625 35.0625 C29.27677497 41.39915763 23.77738081 45.18472459 19.05078125 49.19921875 C17.03566087 50.96868636 15.17539061 52.82217202 13.3125 54.75 C9.91667228 58.16887633 7.17401839 60.7393631 2.23046875 61.33203125 C-1.96453578 60.90086392 -3.84084728 59.35380395 -7.125 56.75 C-8.13820313 55.96109375 -9.15140625 55.1721875 -10.1953125 54.359375 C-12.59998088 52.33650634 -14.82713802 50.2664302 -17 48 C-13.00637266 48.57051819 -10.27245855 49.62746755 -7 52 C-6.21625 53.051875 -5.4325 54.10375 -4.625 55.1875 C-2.22587576 58.34919939 -2.22587576 58.34919939 1.5625 58.5 C5.58286932 57.94114999 5.58286932 57.94114999 9 56 C10.33404967 53.85069776 11.07437788 51.77686637 11.875 49.375 C13.2182437 46.5392633 14.22912631 46.25136231 17 45 C17.33 44.01 17.66 43.02 18 42 C19.62890625 40.61328125 19.62890625 40.61328125 21.5625 39.3125 C22.20316406 38.87550781 22.84382812 38.43851563 23.50390625 37.98828125 C23.99761719 37.66214844 24.49132812 37.33601563 25 37 C25.99 37.495 25.99 37.495 27 38 C25.91215032 34.75016865 25.91215032 34.75016865 24 32 C23.95936168 30.33382885 23.957279 28.66611905 24 27 C22.68 27.33 21.36 27.66 20 28 C20 27.34 20 26.68 20 26 C19.34 25.67 18.68 25.34 18 25 C18.33 24.34 18.66 23.68 19 23 C18.34 23 17.68 23 17 23 C15.66653588 21.04969533 14.56108684 19.00995631 13.4140625 16.9453125 C11.81887645 14.75083004 10.48708495 14.00541732 8 13 C8 12.34 8 11.68 8 11 C7.01 11 6.02 11 5 11 C4.01 9.02 3.02 7.04 2 5 C-4.20649237 4.57196604 -6.9149336 5.09750718 -12 9 C-12.99 9.33 -13.98 9.66 -15 10 C-15.33 10.99 -15.66 11.98 -16 13 C-17.8203125 14.32421875 -17.8203125 14.32421875 -20.125 15.6875 C-24.40533686 18.40452404 -27.42114234 21.43049581 -30.58984375 25.36328125 C-32 27 -32 27 -34 28 C-34.65772428 31.02934491 -34.65772428 31.02934491 -35 34 C-34.01 34 -33.02 34 -32 34 C-30.29006566 35.6222454 -28.62652316 37.29413425 -27 39 C-25.68824014 40.02813611 -24.3630107 41.04084432 -23 42 C-23.33 42.66 -23.66 43.32 -24 44 C-25.62672685 42.87749844 -27.25132582 41.75191267 -28.875 40.625 C-29.77992188 39.99851563 -30.68484375 39.37203125 -31.6171875 38.7265625 C-35.87384804 35.64222814 -35.87384804 35.64222814 -36.6875 31.5 C-36.57766584 26.01827684 -33.02105001 22.98899197 -29.375 19.24609375 C-27.57975299 17.54828614 -25.79543203 15.92491389 -23.875 14.375 C-21.39638571 12.32744906 -19.55321712 10.38073871 -17.5 7.9375 C-12.44934274 2.09111556 -7.92343913 -1.50161951 0 0 Z " fill="#D2AA50" transform="translate(711,44)"/>
<path d="M0 0 C0.66902344 -0.020625 1.33804687 -0.04125 2.02734375 -0.0625 C6.49389958 -0.09760064 9.15878275 0.60939908 12.75 3.25 C13.3275 3.6625 13.905 4.075 14.5 4.5 C16.49959383 7.29943137 16.57497819 9.866245 16.75 13.25 C16.01054953 17.22454627 14.91918034 18.12480655 11.625 20.5625 C7.58419205 22.68073406 4.24257283 22.56526827 -0.25 22.25 C-0.229375 23.343125 -0.20875 24.43625 -0.1875 25.5625 C-0.25 29.25 -0.25 29.25 -1.25 32.25 C-3.56 32.25 -5.87 32.25 -8.25 32.25 C-9.21035238 25.31252906 -9.24657344 18.73558058 -8.875 11.75 C-8.83117187 10.7496875 -8.78734375 9.749375 -8.7421875 8.71875 C-8.35109531 0.72308745 -8.12632563 0.06121526 0 0 Z M-1.25 7.25 C-1.25 9.89 -1.25 12.53 -1.25 15.25 C2.68670488 16.56223496 4.87488144 15.49296256 8.75 14.25 C8.91687448 11.83354218 8.91687448 11.83354218 8.75 9.25 C6.98863645 7.06668311 6.98863645 7.06668311 4.8046875 7.0546875 C1.77734375 7.15234375 1.77734375 7.15234375 -1.25 7.25 Z " fill="#030303" transform="translate(299.25,236.75)"/>
<path d="M0 0 C2.70552388 2.19823815 4.44778333 3.89556667 6 7 C6.16796875 9.0234375 6.16796875 9.0234375 6.1875 11.375 C6.20167969 12.14585937 6.21585938 12.91671875 6.23046875 13.7109375 C5.97233724 16.27475213 5.3707919 17.82724821 4 20 C-0.76364324 23.25321977 -5.39170575 23.92136263 -11 23 C-16.64028777 20.07913669 -16.64028777 20.07913669 -18 16 C-18.49754404 11.1876888 -18.72024124 7.28042886 -16.3125 3 C-11.25018218 -1.37822081 -6.35374525 -1.81864447 0 0 Z " fill="#E9BA59" transform="translate(752,243)"/>
<path d="M0 0 C3.91288936 0.84409679 6.52891077 3.5432161 9.13671875 6.4609375 C10.87893586 9.94537172 10.72347029 13.65980795 10.13671875 17.4609375 C8.43420156 20.53563273 6.32445367 22.86707004 3.13671875 24.4609375 C-1.83626176 25.16991639 -5.68130754 25.02976993 -9.86328125 22.0859375 C-13.70695371 18.7227241 -13.70695371 18.7227241 -14.13671875 15.25390625 C-14.41270849 8.17370797 -14.41270849 8.17370797 -11.55078125 4.4609375 C-7.54229513 1.47787806 -5.1310283 -0.09484341 0 0 Z " fill="#E9BA5C" transform="translate(130.86328125,242.5390625)"/>
<path d="M0 0 C0.8971875 0.7425 0.8971875 0.7425 1.8125 1.5 C1.4825 3.48 1.1525 5.46 0.8125 7.5 C-0.16589844 7.23123047 -0.16589844 7.23123047 -1.1640625 6.95703125 C-6.94015187 5.54069722 -6.94015187 5.54069722 -12.6875 6.6875 C-15.38853843 8.42450826 -15.38853843 8.42450826 -17.1875 11.5 C-17.56045293 14.93116692 -17.34764933 17.09962668 -16.0625 20.3125 C-14.31602778 22.73379727 -14.31602778 22.73379727 -11.3125 23.4375 C-7.97857951 23.50417841 -6.22466247 22.74601537 -3.1875 21.5 C-0.375 21.875 -0.375 21.875 1.8125 22.5 C2.1425 23.82 2.4725 25.14 2.8125 26.5 C-2.95631188 30.97082921 -7.51830212 31.95060325 -14.75 31.0625 C-19.53499329 28.88750305 -22.41046853 25.94325035 -25.1875 21.5 C-27.32456235 15.37451647 -25.55744113 10.52829093 -23 4.875 C-17.4459996 -2.40265569 -8.12329307 -3.82272615 0 0 Z " fill="#030303" transform="translate(407.1875,238.5)"/>
<path d="M0 0 C4.15101055 2.00616768 7.14172321 5.05077258 10.07421875 8.546875 C15.37736819 14.6886947 21.25506049 20.26437223 27.05664062 25.9296875 C28.35311523 27.20972656 28.35311523 27.20972656 29.67578125 28.515625 C30.8500769 29.66466309 30.8500769 29.66466309 32.0480957 30.83691406 C33.88390561 32.87134505 35.05914111 34.43857429 36 37 C35.625 40.25 35.625 40.25 35 43 C32.86203174 40.86203174 32.56798347 39.87825079 31.75 37.0625 C30.57272476 33.74472432 30.36937224 33.20074578 27.125 31.4375 C26.09375 30.963125 25.0625 30.48875 24 30 C19 24.47916667 19 24.47916667 19 21 C18.13375 20.9071875 18.13375 20.9071875 17.25 20.8125 C14.10698594 19.6775227 13.00097824 17.62628394 11 15 C10.2575 14.443125 9.515 13.88625 8.75 13.3125 C8.1725 12.879375 7.595 12.44625 7 12 C7 11.34 7 10.68 7 10 C6.38125 9.9175 5.7625 9.835 5.125 9.75 C4.073125 9.37875 4.073125 9.37875 3 9 C2.7215625 8.34 2.443125 7.68 2.15625 7 C1.18307584 4.77996714 1.18307584 4.77996714 -1.1640625 4.390625 C-1.97617187 4.34421875 -2.78828125 4.2978125 -3.625 4.25 C-4.85089844 4.16492188 -4.85089844 4.16492188 -6.1015625 4.078125 C-6.72804688 4.05234375 -7.35453125 4.0265625 -8 4 C-8.43119141 4.95519531 -8.43119141 4.95519531 -8.87109375 5.9296875 C-10.24130544 8.44253247 -11.44894428 8.84791032 -14 10 C-14.33 10.66 -14.66 11.32 -15 12 C-15.66 12 -16.32 12 -17 12 C-17.26941406 12.56332031 -17.53882813 13.12664063 -17.81640625 13.70703125 C-19.06837707 16.13246646 -20.45071762 18.39868743 -21.9375 20.6875 C-22.44152344 21.47511719 -22.94554687 22.26273438 -23.46484375 23.07421875 C-25 25 -25 25 -28 26 C-29.20882096 28.00016466 -29.20882096 28.00016466 -30 30 C-31.32 30 -32.64 30 -34 30 C-34 31.32 -34 32.64 -34 34 C-34.66 34 -35.32 34 -36 34 C-36.33 35.98 -36.66 37.96 -37 40 C-26.11 40 -15.22 40 -4 40 C-4 40.33 -4 40.66 -4 41 C-8.76887637 41.02475064 -13.53771521 41.04288403 -18.30664062 41.05493164 C-19.92839204 41.05995505 -21.55013895 41.06677494 -23.171875 41.07543945 C-25.50521969 41.08759229 -27.8385044 41.09324828 -30.171875 41.09765625 C-30.89493835 41.10281754 -31.61800171 41.10797882 -32.36297607 41.11329651 C-35.7201275 41.11366918 -38.79106108 41.04907619 -42 40 C-42.08273478 35.44958712 -41.86475985 33.09615067 -39 29.46484375 C-36.74050487 27.18000172 -34.51867099 24.99645113 -32 23 C-31.34 23 -30.68 23 -30 23 C-29.67 22.01 -29.34 21.02 -29 20 C-27.43359375 18.4921875 -27.43359375 18.4921875 -25.4375 16.875 C-22.28152101 14.21584776 -19.55672458 11.44892932 -16.875 8.3125 C-11.9204694 2.65293873 -7.94195845 -1.25399344 0 0 Z " fill="#D56060" transform="translate(765,5)"/>
<path d="M0 0 C1.00023193 0.00523682 2.00046387 0.01047363 3.03100586 0.01586914 C4.1105957 0.0190918 5.19018555 0.02231445 6.30249023 0.02563477 C8.00695312 0.03820312 8.00695312 0.03820312 9.74584961 0.05102539 C11.45611328 0.05779297 11.45611328 0.05779297 13.20092773 0.06469727 C16.02845312 0.07652792 18.85587601 0.09301129 21.68334961 0.11352539 C21.72589317 2.11307285 21.72415744 4.11394175 21.68334961 6.11352539 C21.35334961 6.44352539 21.02334961 6.77352539 20.68334961 7.11352539 C18.37334961 7.11352539 16.06334961 7.11352539 13.68334961 7.11352539 C13.68334961 15.36352539 13.68334961 23.61352539 13.68334961 32.11352539 C11.37334961 32.11352539 9.06334961 32.11352539 6.68334961 32.11352539 C5.68334961 31.11352539 5.68334961 31.11352539 5.56982422 28.796875 C5.57506104 27.79664307 5.58029785 26.79641113 5.58569336 25.76586914 C5.58891602 24.6862793 5.59213867 23.60668945 5.59545898 22.49438477 C5.60383789 21.35807617 5.6122168 20.22176758 5.62084961 19.05102539 C5.62536133 17.91084961 5.62987305 16.77067383 5.63452148 15.59594727 C5.64635213 12.76842188 5.66283551 9.94099899 5.68334961 7.11352539 C3.04334961 6.78352539 0.40334961 6.45352539 -2.31665039 6.11352539 C-2.69883806 4.45737882 -3.03060141 2.78895515 -3.31665039 1.11352539 C-2.31665039 0.11352539 -2.31665039 0.11352539 0 0 Z " fill="#020202" transform="translate(592.316650390625,236.886474609375)"/>
<path d="M0 0 C3 0.125 3 0.125 4 1.125 C4.08726223 2.90571246 4.10699041 4.6898314 4.09765625 6.47265625 C4.09443359 7.55224609 4.09121094 8.63183594 4.08789062 9.74414062 C4.07951172 10.88044922 4.07113281 12.01675781 4.0625 13.1875 C4.05798828 14.32767578 4.05347656 15.46785156 4.04882812 16.64257812 C4.03699747 19.47010351 4.0205141 22.2975264 4 25.125 C4.78246094 25.11339844 5.56492187 25.10179687 6.37109375 25.08984375 C7.38300781 25.08082031 8.39492188 25.07179688 9.4375 25.0625 C10.44683594 25.05089844 11.45617187 25.03929687 12.49609375 25.02734375 C15 25.125 15 25.125 16 26.125 C16.04080783 28.12458364 16.04254356 30.12545254 16 32.125 C12.85418577 32.15388514 9.70840531 32.17175923 6.5625 32.1875 C5.66466797 32.19587891 4.76683594 32.20425781 3.84179688 32.21289062 C2.56079102 32.21772461 2.56079102 32.21772461 1.25390625 32.22265625 C0.46314697 32.22789307 -0.3276123 32.23312988 -1.14233398 32.23852539 C-3 32.125 -3 32.125 -4 31.125 C-4.10012401 28.91849344 -4.1308118 26.70877614 -4.1328125 24.5 C-4.13376923 23.83790527 -4.13472595 23.17581055 -4.13571167 22.49365234 C-4.13639326 21.09147039 -4.13454042 19.6892853 -4.13037109 18.28710938 C-4.12502246 16.13404287 -4.1303167 13.98118498 -4.13671875 11.828125 C-4.13605796 10.46874954 -4.13477679 9.1093742 -4.1328125 7.75 C-4.13168457 6.50476563 -4.13055664 5.25953125 -4.12939453 3.9765625 C-3.95167153 0.05995001 -3.93938636 0.1641411 0 0 Z " fill="#020202" transform="translate(534,236.875)"/>
<path d="M0 0 C3 0.125 3 0.125 4 1.125 C4.08790975 3.41651417 4.10694038 5.71072524 4.09765625 8.00390625 C4.0962413 8.6905687 4.09482635 9.37723114 4.09336853 10.08470154 C4.08775479 12.28567801 4.07520007 14.48655409 4.0625 16.6875 C4.05748676 18.17643083 4.05292355 19.66536324 4.04882812 21.15429688 C4.03778093 24.81123075 4.02050713 28.46810558 4 32.125 C1.66705225 32.16741723 -0.66702567 32.16592937 -3 32.125 C-4.88319268 30.24180732 -4.13054285 27.00569863 -4.1328125 24.5 C-4.13376923 23.83790527 -4.13472595 23.17581055 -4.13571167 22.49365234 C-4.13639326 21.09147039 -4.13454042 19.6892853 -4.13037109 18.28710938 C-4.12502246 16.13404287 -4.1303167 13.98118498 -4.13671875 11.828125 C-4.13605796 10.46874954 -4.13477679 9.1093742 -4.1328125 7.75 C-4.13168457 6.50476563 -4.13055664 5.25953125 -4.12939453 3.9765625 C-3.95167153 0.05995001 -3.93938636 0.1641411 0 0 Z " fill="#020202" transform="translate(625,236.875)"/>
<path d="M0 0 C4.15101055 2.00616768 7.14172321 5.05077258 10.07421875 8.546875 C15.37736819 14.6886947 21.25506049 20.26437223 27.05664062 25.9296875 C27.92095703 26.78304688 28.78527344 27.63640625 29.67578125 28.515625 C30.45864502 29.28165039 31.24150879 30.04767578 32.0480957 30.83691406 C33.88390561 32.87134505 35.05914111 34.43857429 36 37 C35.625 40.25 35.625 40.25 35 43 C32.86203174 40.86203174 32.56798347 39.87825079 31.75 37.0625 C30.57272476 33.74472432 30.36937224 33.20074578 27.125 31.4375 C26.09375 30.963125 25.0625 30.48875 24 30 C19 24.47916667 19 24.47916667 19 21 C18.13375 20.9071875 18.13375 20.9071875 17.25 20.8125 C14.10698594 19.6775227 13.00097824 17.62628394 11 15 C10.2575 14.443125 9.515 13.88625 8.75 13.3125 C8.1725 12.879375 7.595 12.44625 7 12 C7 11.34 7 10.68 7 10 C6.38125 9.9175 5.7625 9.835 5.125 9.75 C4.073125 9.37875 4.073125 9.37875 3 9 C2.731875 8.34 2.46375 7.68 2.1875 7 C1.795625 6.34 1.40375 5.68 1 5 C-3.28750852 3.94834697 -6.74378709 3.83921466 -11 5 C-11 5.66 -11 6.32 -11 7 C-11.99 7 -12.98 7 -14 7 C-11.88039066 0.64117198 -6.19296629 -0.97783678 0 0 Z " fill="#BA525A" transform="translate(765,5)"/>
<path d="M0 0 C0.33 0 0.66 0 1 0 C0.82242748 4.52809929 0.59278217 6.43416248 -2.75 9.625 C-3.8325808 10.41769542 -4.91589204 11.20939444 -6 12 C-8.34991312 14.2880733 -10.63950245 16.62552397 -12.9140625 18.98828125 C-21.41183634 27.69292974 -21.41183634 27.69292974 -26.765625 28.328125 C-30.96531544 27.90206945 -32.83780148 26.35621878 -36.125 23.75 C-37.13820313 22.96109375 -38.15140625 22.1721875 -39.1953125 21.359375 C-41.59998088 19.33650634 -43.82713802 17.2664302 -46 15 C-42.00637266 15.57051819 -39.27245855 16.62746755 -36 19 C-35.21625 20.051875 -34.4325 21.10375 -33.625 22.1875 C-31.22587576 25.34919939 -31.22587576 25.34919939 -27.4375 25.5 C-23.41713068 24.94114999 -23.41713068 24.94114999 -20 23 C-18.66595033 20.85069776 -17.92562212 18.77686637 -17.125 16.375 C-15.7817563 13.5392633 -14.77087369 13.25136231 -12 12 C-11.67 11.01 -11.34 10.02 -11 9 C-9.37109375 7.61328125 -9.37109375 7.61328125 -7.4375 6.3125 C-6.79683594 5.87550781 -6.15617188 5.43851562 -5.49609375 4.98828125 C-5.00238281 4.66214844 -4.50867188 4.33601563 -4 4 C-3.34 4.33 -2.68 4.66 -2 5 C-2 4.01 -2 3.02 -2 2 C-1.34 2 -0.68 2 0 2 C0 1.34 0 0.68 0 0 Z " fill="#E1BB52" transform="translate(740,77)"/>
<path d="M0 0 C1.32 0.33 2.64 0.66 4 1 C4 1.66 4 2.32 4 3 C4.66 3 5.32 3 6 3 C6 3.66 6 4.32 6 5 C6.66 5 7.32 5 8 5 C9.35386936 6.65002828 10.68678142 8.3174387 12 10 C12.66 10.33 13.32 10.66 14 11 C14 11.66 14 12.32 14 13 C14.9590625 13.1546875 14.9590625 13.1546875 15.9375 13.3125 C16.618125 13.539375 17.29875 13.76625 18 14 C18.33 14.99 18.66 15.98 19 17 C19.99 17.33 20.98 17.66 22 18 C23.1875 21.0625 23.1875 21.0625 24 24 C24.66 24 25.32 24 26 24 C31 29.47619048 31 29.47619048 31 32 C32.65 32 34.3 32 36 32 C36.33 32.99 36.66 33.98 37 35 C39.00016466 36.20882096 39.00016466 36.20882096 41 37 C37.82479048 37.38880117 35.17030919 37.6507669 32.29296875 36.05078125 C27.75151316 32.33891239 24.3060004 27.72006343 20.671875 23.15234375 C14.91604196 16.16791338 8.15316843 9.92504609 1.58203125 3.71484375 C0 2 0 2 0 0 Z " fill="#A84A4B" transform="translate(724,45)"/>
<path d="M0 0 C4.96432365 -0.29201904 8.03701574 -0.14707573 12 3 C12.33 3.99 12.66 4.98 13 6 C14.33333333 6.33333333 15.66666667 6.66666667 17 7 C18.640625 8.56640625 18.640625 8.56640625 20.25 10.5625 C22.74799323 13.56438028 25.3160563 16.34895439 28.125 19.0625 C31.58534288 22.48911634 34.46559612 25.83049684 37 30 C36.505 31.485 36.505 31.485 36 33 C32.125 31.125 32.125 31.125 31 30 C30.95936168 28.33382885 30.957279 26.66611905 31 25 C29.68 25.33 28.36 25.66 27 26 C27 25.34 27 24.68 27 24 C26.34 23.67 25.68 23.34 25 23 C25.33 22.34 25.66 21.68 26 21 C25.34 21 24.68 21 24 21 C22.66653588 19.04969533 21.56108684 17.00995631 20.4140625 14.9453125 C18.81887645 12.75083004 17.48708495 12.00541732 15 11 C15 10.34 15 9.68 15 9 C14.01 9 13.02 9 12 9 C11.01 7.02 10.02 5.04 9 3 C2.79350763 2.57196604 0.0850664 3.09750718 -5 7 C-5.99 7.33 -6.98 7.66 -8 8 C-8 7.34 -8 6.68 -8 6 C-2.58823529 2 -2.58823529 2 0 2 C0 1.34 0 0.68 0 0 Z " fill="#CA9A43" transform="translate(704,46)"/>
<path d="M0 0 C3.91288936 0.84409679 6.52891077 3.5432161 9.13671875 6.4609375 C10.87893586 9.94537172 10.72347029 13.65980795 10.13671875 17.4609375 C8.43420156 20.53563273 6.32445367 22.86707004 3.13671875 24.4609375 C-1.83626176 25.16991639 -5.68130754 25.02976993 -9.86328125 22.0859375 C-13.70695371 18.7227241 -13.70695371 18.7227241 -14.13671875 15.25390625 C-14.41270849 8.17370797 -14.41270849 8.17370797 -11.55078125 4.4609375 C-7.54229513 1.47787806 -5.1310283 -0.09484341 0 0 Z M-10.86328125 6.4609375 C-12.6120198 9.9584146 -12.40939732 13.64470472 -11.86328125 17.4609375 C-10.24096574 20.75038126 -10.24096574 20.75038126 -6.86328125 22.4609375 C-2.43503686 23.32401362 1.94841042 23.68381568 5.99609375 21.421875 C8.08636513 19.31986052 9.0501454 17.15596301 9.4140625 14.234375 C9.2447701 9.83277273 8.44654308 7.83121536 5.57421875 4.3984375 C-0.61136088 0.91201989 -5.69260355 1.1335726 -10.86328125 6.4609375 Z " fill="#D5BC8A" transform="translate(130.86328125,242.5390625)"/>
<path d="M0 0 C0.66 0 1.32 0 2 0 C1.45541143 3.97109929 -0.40377356 5.74065416 -3.2265625 8.484375 C-4.09410156 9.33773437 -4.96164062 10.19109375 -5.85546875 11.0703125 C-6.76941406 11.95460938 -7.68335938 12.83890625 -8.625 13.75 C-14.11671087 19.10660365 -19.54444753 24.40458447 -24.44287109 30.31738281 C-27.50995499 33.63164155 -29.13544477 34.95677224 -33.75 35.1875 C-34.8225 35.125625 -35.895 35.06375 -37 35 C-36.1646875 34.6596875 -36.1646875 34.6596875 -35.3125 34.3125 C-32.78808783 33.01523552 -32.78808783 33.01523552 -30.4375 30.4375 C-28 28 -28 28 -25 27 C-23.66172696 25.33729713 -22.32810215 23.67083819 -21 22 C-20.34 22 -19.68 22 -19 22 C-18.7834375 21.28457031 -18.566875 20.56914063 -18.34375 19.83203125 C-16.64619075 16.25432644 -14.45300198 14.31023202 -11.5 11.6875 C-10.5203125 10.80449219 -9.540625 9.92148437 -8.53125 9.01171875 C-6 7 -6 7 -4 7 C-3.71125 6.401875 -3.4225 5.80375 -3.125 5.1875 C-2 3 -2 3 0 0 Z " fill="#89343D" transform="translate(797,46)"/>
<path d="M0 0 C2.70552388 2.19823815 4.44778333 3.89556667 6 7 C6.16796875 9.0234375 6.16796875 9.0234375 6.1875 11.375 C6.20167969 12.14585937 6.21585938 12.91671875 6.23046875 13.7109375 C5.97233724 16.27475213 5.3707919 17.82724821 4 20 C-0.76364324 23.25321977 -5.39170575 23.92136263 -11 23 C-16.64028777 20.07913669 -16.64028777 20.07913669 -18 16 C-18.49754404 11.1876888 -18.72024124 7.28042886 -16.3125 3 C-11.25018218 -1.37822081 -6.35374525 -1.81864447 0 0 Z M-11 1 C-11 1.66 -11 2.32 -11 3 C-12.2065625 3.433125 -12.2065625 3.433125 -13.4375 3.875 C-16.1326468 4.73262568 -16.1326468 4.73262568 -17 7 C-17.5479707 11.04128388 -17.83307391 13.54346432 -15.7890625 17.1171875 C-13.24918437 20.0863408 -11.38554863 21.84930589 -7.4140625 22.28125 C-3.17254845 21.93297319 -0.58218999 21.38812666 3 19 C4.99294782 14.6155148 5.21123401 11.64306371 4 7 C2.70703347 3.67522892 2.1054028 3.07026853 -1 1 C-3.51584891 0.75849227 -3.51584891 0.75849227 -6.1875 0.875 C-7.53908203 0.90207031 -7.53908203 0.90207031 -8.91796875 0.9296875 C-9.94857422 0.96449219 -9.94857422 0.96449219 -11 1 Z " fill="#CEB881" transform="translate(752,243)"/>
<path d="M0 0 C0.66 0.33 1.32 0.66 2 1 C0.57122012 5.28633965 -2.31854649 7.687473 -5.8515625 10.4453125 C-9.96606121 13.62652831 -9.96606121 13.62652831 -11.9375 18.375 C-11.958125 19.24125 -11.97875 20.1075 -12 21 C-11.01 21 -10.02 21 -9 21 C-7.29006566 22.6222454 -5.62652316 24.29413425 -4 26 C-2.68824014 27.02813611 -1.3630107 28.04084432 0 29 C-0.33 29.66 -0.66 30.32 -1 31 C-2.62672685 29.87749844 -4.25132582 28.75191267 -5.875 27.625 C-6.77992188 26.99851562 -7.68484375 26.37203125 -8.6171875 25.7265625 C-12.87384804 22.64222814 -12.87384804 22.64222814 -13.6875 18.5 C-13.58282199 12.12627254 -8.27660108 8.16331364 -4 4 C-2.86304688 2.86304688 -2.86304688 2.86304688 -1.703125 1.703125 C-1.14109375 1.14109375 -0.5790625 0.5790625 0 0 Z " fill="#D6BB75" transform="translate(688,57)"/>
<path d="M0 0 C0.66 0.33 1.32 0.66 2 1 C1.2884375 1.8353125 1.2884375 1.8353125 0.5625 2.6875 C-1.12395996 5.18346074 -1.58953107 7.0446237 -2 10 C-1.34 10 -0.68 10 0 10 C3 14.38461538 3 14.38461538 3 17 C5.9296875 16.21875 5.9296875 16.21875 8.859375 15.4375 C11 15 11 15 15 15 C15.33 14.34 15.66 13.68 16 13 C16 13.99 16 14.98 16 16 C7.70702179 19.98062954 7.70702179 19.98062954 3 19 C-0.50853463 16.65624205 -3.43198918 14.05475054 -4.58203125 9.89453125 C-4.76499827 6.28262669 -4.25437848 4.3179731 -2 1.5 C-1.34 1.005 -0.68 0.51 0 0 Z " fill="#E0B966" transform="translate(739,246)"/>
<path d="M0 0 C0.66 0 1.32 0 2 0 C2 0.66 2 1.32 2 2 C2.99 2.33 3.98 2.66 5 3 C5 3.66 5 4.32 5 5 C6.32 5.33 7.64 5.66 9 6 C9 6.99 9 7.98 9 9 C10.423125 8.9690625 10.423125 8.9690625 11.875 8.9375 C15 9 15 9 17 10 C17 10.99 17 11.98 17 13 C19.97 13.495 19.97 13.495 23 14 C23.33 15.32 23.66 16.64 24 18 C22.7315625 17.319375 22.7315625 17.319375 21.4375 16.625 C17.99889501 14.99947764 14.650935 14.03328349 11 13 C8 11 8 11 7.1875 9.125 C6.03419175 6.6787297 6.03419175 6.6787297 2.875 4.9375 C1.92625 4.298125 0.9775 3.65875 0 3 C0 2.01 0 1.02 0 0 Z " fill="#E8C358" transform="translate(680,78)"/>
<path d="M0 0 C0.66 0.33 1.32 0.66 2 1 C0.50924025 5.72073922 0.50924025 5.72073922 -1.9375 7.0625 C-2.618125 7.371875 -3.29875 7.68125 -4 8 C-5.01241685 9.32392972 -6.01439389 10.65599167 -7 12 C-7.66 12 -8.32 12 -9 12 C-9 12.66 -9 13.32 -9 14 C-9.99 14 -10.98 14 -12 14 C-12.66 15.65 -13.32 17.3 -14 19 C-12.68 19.33 -11.36 19.66 -10 20 C-10.66 20.33 -11.32 20.66 -12 21 C-12.99 20.67 -13.98 20.34 -15 20 C-15.5 17.4375 -15.5 17.4375 -15 14 C-12.59971418 11.33690916 -9.80161036 9.22465535 -7 7 C-5.27986434 5.37803586 -3.6480375 3.69650919 -2 2 C-1.34 1.34 -0.68 0.68 0 0 Z " fill="#DDA636" transform="translate(691,58)"/>
<path d="M0 0 C3.99362734 0.57051819 6.72754145 1.62746755 10 4 C10.78375 5.051875 11.5675 6.10375 12.375 7.1875 C14.77679538 10.33943889 14.77679538 10.33943889 18.5625 10.5625 C22.09538935 9.98439083 23.31732513 9.20362579 26 7 C26.99 7.33 27.98 7.66 29 8 C27.97271807 8.85100278 26.92724714 9.68006717 25.875 10.5 C25.29492188 10.9640625 24.71484375 11.428125 24.1171875 11.90625 C21.14955429 13.43934465 19.30866894 13.44444807 16 13 C12.9296875 11.171875 12.9296875 11.171875 9.875 8.75 C8.86179687 7.96109375 7.84859375 7.1721875 6.8046875 6.359375 C4.40001912 4.33650634 2.17286198 2.2664302 0 0 Z " fill="#DCC27B" transform="translate(694,92)"/>
<path d="M0 0 C5.87868137 2.7853141 9.43357756 7.73528116 13 13 C8.53948461 10.90943447 4.64515584 8.07432692 1.5625 4.1875 C-1.12715617 2.14336131 -3.76081471 2.71586094 -7 3 C-9.35369807 3.88064927 -9.35369807 3.88064927 -11 5 C-11 5.66 -11 6.32 -11 7 C-11.99 7 -12.98 7 -14 7 C-11.88039066 0.64117198 -6.19296629 -0.97783678 0 0 Z " fill="#AC5C61" transform="translate(765,5)"/>
<path d="M0 0 C11.71287129 9.46039604 11.71287129 9.46039604 14 15.75 C14 18 14 18 12 21 C11.78085937 20.33613281 11.56171875 19.67226563 11.3359375 18.98828125 C9.2176042 12.85972243 9.2176042 12.85972243 4.875 8.25 C1.59802138 5.68540803 0.92657401 3.98426825 0 0 Z " fill="#AC555D" transform="translate(787,27)"/>
<path d="M0 0 C4.60387142 0.87819513 7.33393169 3.3697144 9.90234375 7.13671875 C10.27359375 7.87921875 10.64484375 8.62171875 11.02734375 9.38671875 C9.15234375 9.13671875 9.15234375 9.13671875 7.02734375 8.38671875 C6.32796843 7.07024756 5.66005242 5.73649724 5.02734375 4.38671875 C0.0029499 2.7119208 -4.87351183 3.15056253 -9.97265625 4.38671875 C-7.1109884 0.57116162 -4.77992277 -0.25813363 0 0 Z " fill="#BB9652" transform="translate(708.97265625,43.61328125)"/>
<path d="M0 0 C2.9375 0.8125 2.9375 0.8125 6 2 C6.33 2.99 6.66 3.98 7 5 C8.65 5 10.3 5 12 5 C12 4.34 12 3.68 12 3 C13.32 3.33 14.64 3.66 16 4 C13.49899342 6.40096632 12.04688447 6.99318044 8.5625 7.5 C4.11847697 6.87627747 2.73140616 5.47633511 0 2 C0 1.34 0 0.68 0 0 Z " fill="#E1BE53" transform="translate(704,96)"/>
<path d="M0 0 C6.625 -0.25 6.625 -0.25 10 2 C10 2.66 10 3.32 10 4 C10.5775 4.2475 11.155 4.495 11.75 4.75 C14.32939979 6.18299988 16.06121592 7.78424676 18 10 C18 10.66 18 11.32 18 12 C16.68 11.34 15.36 10.68 14 10 C14 9.34 14 8.68 14 8 C13.38125 7.9175 12.7625 7.835 12.125 7.75 C11.42375 7.5025 10.7225 7.255 10 7 C9.7215625 6.34 9.443125 5.68 9.15625 5 C8.18307584 2.77996714 8.18307584 2.77996714 5.8359375 2.390625 C4.61777344 2.32101563 4.61777344 2.32101563 3.375 2.25 C2.14910156 2.16492188 2.14910156 2.16492188 0.8984375 2.078125 C0.27195312 2.05234375 -0.35453125 2.0265625 -1 2 C-0.67 1.34 -0.34 0.68 0 0 Z " fill="#D0565E" transform="translate(758,7)"/>
<path d="M0 0 C0.33 1.32 0.66 2.64 1 4 C-0.36125 4.8353125 -0.36125 4.8353125 -1.75 5.6875 C-5.77536107 8.55169923 -8.45687156 10.96326835 -9.75 15.8125 C-9.8325 16.534375 -9.915 17.25625 -10 18 C-10.66 18 -11.32 18 -12 18 C-12.08940246 13.79808422 -11.6912335 11.85324135 -9 8.53125 C-6.73549185 6.23770969 -4.50603055 4.02781555 -2 2 C-1.34 2 -0.68 2 0 2 C0 1.34 0 0.68 0 0 Z " fill="#C68283" transform="translate(735,26)"/>
<path d="M0 0 C0.66 0.33 1.32 0.66 2 1 C-0.09048387 7.2714516 -5.46385471 10.06909955 -11 13 C-9.46356148 9.31930113 -7.21849055 7.01224796 -4.375 4.25 C-3.55773437 3.45078125 -2.74046875 2.6515625 -1.8984375 1.828125 C-0.95871094 0.92320313 -0.95871094 0.92320313 0 0 Z " fill="#D2B06B" transform="translate(688,57)"/>
<path d="M0 0 C0.66 0 1.32 0 2 0 C3.75143202 3.50286405 3.54418567 7.17789591 3 11 C1.72828656 14.05831573 0.74359587 14.81632165 -2 17 C-5.06837196 17.47718828 -7.92383235 17.36190208 -11 17 C-11 16.67 -11 16.34 -11 16 C-8.36 16 -5.72 16 -3 16 C-2.34 14.68 -1.68 13.36 -1 12 C-0.34 12 0.32 12 1 12 C1.08159574 7.83861737 0.98248524 4.0527516 0 0 Z " fill="#CDAF7B" transform="translate(138,249)"/>
<path d="M0 0 C0.38929688 0.433125 0.77859375 0.86625 1.1796875 1.3125 C3.89220498 4.0125174 5.81898871 5.82516233 9.69140625 6.3984375 C12.15251298 6.37743232 14.55383942 6.26578002 17 6 C14.62839852 8.37160148 13.99378878 8.31983352 10.75 8.375 C6.16807439 8.27137002 3.43477524 7.17056176 0 4 C0 2.68 0 1.36 0 0 Z " fill="#D3B97D" transform="translate(735,258)"/>
<path d="M0 0 C0.33 0 0.66 0 1 0 C0.7589852 6.14587738 0.7589852 6.14587738 -1.40234375 8.578125 C-2.88046971 9.78844931 -4.43647953 10.90220903 -6 12 C-6.33 10.68 -6.66 9.36 -7 8 C-6.01 8 -5.02 8 -4 8 C-3.34 6.02 -2.68 4.04 -2 2 C-1.34 2 -0.68 2 0 2 C0 1.34 0 0.68 0 0 Z " fill="#DAB870" transform="translate(740,77)"/>
<path d="M0 0 C1.31571603 0.2547514 2.62760376 0.52934141 3.9375 0.8125 C4.66839844 0.96332031 5.39929688 1.11414063 6.15234375 1.26953125 C6.76207031 1.51058594 7.37179687 1.75164062 8 2 C8.33 2.99 8.66 3.98 9 5 C11.00016466 6.20882096 11.00016466 6.20882096 13 7 C8.64642017 7.43535798 5.95900264 7.38921814 2.5625 4.625 C0 2 0 2 0 0 Z " fill="#A34C55" transform="translate(752,75)"/>
<path d="M0 0 C0.99 0.33 1.98 0.66 3 1 C3.33 3.31 3.66 5.62 4 8 C2.02 8 0.04 8 -2 8 C-1.34 7.67 -0.68 7.34 0 7 C0 4.69 0 2.38 0 0 Z " fill="#CB4C55" transform="translate(794,38)"/>
<path d="M0 0 C0.99 0.33 1.98 0.66 3 1 C-2.91684902 5.90153173 -2.91684902 5.90153173 -7.4375 6.3125 C-8.283125 6.209375 -9.12875 6.10625 -10 6 C-9 4 -9 4 -6.125 3 C-5.09375 2.67 -4.0625 2.34 -3 2 C-2.01 1.34 -1.02 0.68 0 0 Z " fill="#D3BD74" transform="translate(720,99)"/>
<path d="M0 0 C3.8359375 0.7890625 3.8359375 0.7890625 5.3125 2.6875 C6.21465796 5.72203131 5.69345348 7.94880471 5 11 C2.77174356 8.77174356 2.30760631 7.34238372 1.375 4.375 C1.11460937 3.55773438 0.85421875 2.74046875 0.5859375 1.8984375 C0.39257812 1.27195313 0.19921875 0.64546875 0 0 Z " fill="#9D4E56" transform="translate(795,37)"/>
<path d="M0 0 C0 0.99 0 1.98 0 3 C-2.4347778 5.17390875 -5.04987143 6.63029745 -8 8 C-7.625 5.5625 -7.625 5.5625 -7 3 C-6.34 2.67 -5.68 2.34 -5 2 C-4.01 2.33 -3.02 2.66 -2 3 C-2 2.34 -2 1.68 -2 1 C-1.34 0.67 -0.68 0.34 0 0 Z " fill="#D26162" transform="translate(756,9)"/>
<path d="M0 0 C0.66 0 1.32 0 2 0 C0.84906278 3.45281166 -0.3205993 4.38082163 -3.0625 6.6875 C-3.79597656 7.31011719 -4.52945313 7.93273437 -5.28515625 8.57421875 C-5.85105469 9.04472656 -6.41695312 9.51523438 -7 10 C-7 7 -7 7 -4.625 4.3125 C-2 2 -2 2 0 2 C0 1.34 0 0.68 0 0 Z " fill="#D8BA7C" transform="translate(731,89)"/>
<path d="M0 0 C1.33332095 2.6666419 0.67102033 4.16680303 0 7 C-1.98 7.66 -3.96 8.32 -6 9 C-5 7 -4 5 -3 3 C-2.34 3 -1.68 3 -1 3 C-0.67 2.01 -0.34 1.02 0 0 Z " fill="#E76464" transform="translate(751,14)"/>
<path d="M0 0 C0.66 0.33 1.32 0.66 2 1 C0.02 3.97 0.02 3.97 -2 7 C-0.02 7.495 -0.02 7.495 2 8 C1.01 8.495 1.01 8.495 0 9 C-0.99 8.67 -1.98 8.34 -3 8 C-3.1875 5.125 -3.1875 5.125 -3 2 C-2.01 1.34 -1.02 0.68 0 0 Z " fill="#DAAA46" transform="translate(679,70)"/>
<path d="M0 0 C1.36125 0.12375 1.36125 0.12375 2.75 0.25 C3.08 0.91 3.41 1.57 3.75 2.25 C0.12 2.91 -3.51 3.57 -7.25 4.25 C-4.83923194 1.28290085 -3.90322061 0.30024774 0 0 Z " fill="#C49E64" transform="translate(706.25,43.75)"/>
<path d="M0 0 C1.60379341 -0.05416188 3.20811406 -0.09286638 4.8125 -0.125 C5.70582031 -0.14820313 6.59914063 -0.17140625 7.51953125 -0.1953125 C10 0 10 0 13 2 C12.67 2.66 12.34 3.32 12 4 C11.505 3.67 11.01 3.34 10.5 3 C6.90909106 1.56363642 3.85543873 1.87148538 0 2 C0 1.34 0 0.68 0 0 Z " fill="#DFBF6F" transform="translate(741,244)"/>
<path d="M0 0 C2.64 0.33 5.28 0.66 8 1 C8.33 2.32 8.66 3.64 9 5 C4.545 3.02 4.545 3.02 0 1 C0 0.67 0 0.34 0 0 Z " fill="#E6C04E" transform="translate(695,91)"/>
<path d="M0 0 C1.32 0.33 2.64 0.66 4 1 C4 1.66 4 2.32 4 3 C4.66 3 5.32 3 6 3 C5.67 3.99 5.34 4.98 5 6 C4.01 5.67 3.02 5.34 2 5 C0.8125 2.4375 0.8125 2.4375 0 0 Z " fill="#AB5C5E" transform="translate(724,45)"/>
<path d="M0 0 C1.32 0.66 2.64 1.32 4 2 C3.34 2.66 2.68 3.32 2 4 C-0.33333333 4 -2.66666667 4 -5 4 C-3.35 2.68 -1.7 1.36 0 0 Z " fill="#0B0B0B" transform="translate(361,257)"/>
<path d="M0 0 C2.64 1.65 5.28 3.3 8 5 C7.67 5.66 7.34 6.32 7 7 C5.82780457 6.21654285 4.66236332 5.42297164 3.5 4.625 C2.8503125 4.18414062 2.200625 3.74328125 1.53125 3.2890625 C1.0259375 2.86367187 0.520625 2.43828125 0 2 C0 1.34 0 0.68 0 0 Z " fill="#DBC16C" transform="translate(680,81)"/>
<path d="M0 0 C-2.31 1.32 -4.62 2.64 -7 4 C-7.66 3.34 -8.32 2.68 -9 2 C-5.96271914 -1.03728086 -4.06215635 -1.35405212 0 0 Z " fill="#D8B446" transform="translate(704,48)"/>
</svg>
